/* XPM */
static char *b14ed4adba9c47e0d00a684646bc0322FtbCbHfeUKoUQYK7[] = {
/* columns rows colors chars-per-pixel */
"64 64 101 2 ",
"   c #7A9F14",
".  c #7DA313",
"X  c #81A714",
"o  c #85AC13",
"O  c #88AF13",
"+  c #86AE1C",
"@  c #8BB312",
"#  c #8DB817",
"$  c #8CB51C",
"%  c #8EBA19",
"&  c #91B314",
"*  c #9DB014",
"=  c #92B817",
"-  c #97B218",
";  c #9CB31E",
":  c #91BD1C",
">  c #A6AE15",
",  c #B3AB17",
"<  c #BFA719",
"1  c #8DB422",
"2  c #90B72A",
"3  c #90B82F",
"4  c #92B736",
"5  c #94BA37",
"6  c #92B73C",
"7  c #92B839",
"8  c #BCAD28",
"9  c #A9B828",
"0  c #AAB73E",
"q  c #DD9E1C",
"w  c #C7A519",
"e  c #C0AE2F",
"r  c #D5A32D",
"t  c #C4AF36",
"y  c #D7A93B",
"u  c #C6B33A",
"i  c #E1A63B",
"p  c #93C01E",
"a  c #95B940",
"s  c #99BB4C",
"d  c #9CBE54",
"f  c #9FBF5C",
"g  c #9EBF60",
"h  c #A2BF6B",
"j  c #E0A74B",
"k  c #E6AD56",
"l  c #ECB067",
"z  c #E9B16E",
"x  c #F0B371",
"c  c #A1C05C",
"v  c #A2C164",
"b  c #A7C46D",
"n  c #AAC674",
"m  c #ABC578",
"M  c #ADC87D",
"N  c #F5BA83",
"B  c #B3CB87",
"V  c #B1CA85",
"C  c #B4CA84",
"Z  c #B4CC87",
"A  c #B1CA82",
"S  c #B3CB88",
"D  c #B5C794",
"F  c #BCD092",
"G  c #C2D492",
"H  c #CAD197",
"J  c #C4D29C",
"K  c #C1D49F",
"L  c #D5D39D",
"P  c #ECC89C",
"I  c #CAD7A4",
"U  c #C6D7A8",
"Y  c #CBD8AD",
"T  c #CADBAD",
"R  c #CAD9AA",
"E  c #D5D6A7",
"W  c #DED7AC",
"Q  c #CBDBB2",
"!  c #D4DCB4",
"~  c #D6DCB6",
"^  c #D3DFB9",
"/  c #EAD3AF",
"(  c #F0D2AE",
")  c #E0D7B0",
"_  c #E5D4B0",
"`  c #E5D7B0",
"'  c #E0DBB7",
"]  c #E2DAB6",
"[  c #E2DAB7",
"{  c #E1DDBB",
"}  c #F1D1B3",
"|  c #EBDFC2",
" . c #E6E3C5",
".. c #EAE2C6",
"X. c #E1E6C9",
"o. c #EAE6CE",
"O. c #F0E2CA",
"+. c #EDE8D3",
"@. c #ECEFD9",
"#. c #F2E7D1",
"$. c #F3E7D5",
/* pixels */
"@ @ @ @ @ @ @ @ @ @ O X @ @ @ @ @ @ @ @ @ @ @ @ @ O @ @ @ @ @ @ @ @ @ @ @ @ @ @ # @ @ @ @ @ ! ..c @ @ @ @ @ @ @ @ @ @ @ @ @ @ @ ",
"@ @ @ @ @ @ @ @ @ @ @ @ @ @ @ @ @ @ @ @ @ @ @ O @ X @ @ @ @ @ @ @ @ @ @ @ @ @ @ @ @ @ @ @ @ 7 d @ @ @ @ @ @ @ @ @ @ @ @ @ @ @ @ ",
"@ @ @ @ @ @ @ @ @ @ @ @ @ @ @ @ @ @ @ @ @ @ @ : @ O @ @ @ @ @ @ @ @ @ @ @ @ @ @ @ @ @ @ @ @ @ @ @ @ @ @ @ @ @ @ @ @ @ @ @ @ @ @ ",
"@ @ @ @ @ @ @ @ @ @ @ @ @ @ @ @ @ @ @ @ @ @ # # @ @ @ @ @ @ @ @ @ @ @ @ @ @ @ @ @ @ @ @ @ @ @ @ @ p # @ @ @ @ @ @ @ @ @ @ @ @ @ ",
"@ @ @ @ @ @ : @ @ @ @ @ @ @ @ @ @ @ @ @ @ @ @ @ @ @ @ @ @ @ @ @ @ @ O X @ @ @ @ @ @ @ @ @ @ @ @ @ @ @ @ @ @ @ @ @ @ @ @ @ @ @ @ ",
"@ @ @ @ @ @ # @ @ @ @ @ @ @ @ @ @ @ @ @ @ @ @ @ @ @ @ @ @ @ @ @ @ @ @ @ O @ @ @ @ p @ @ @ @ @ @ @ @ @ @ @ @ @ @ @ @ @ @ @ @ @ @ ",
"@ @ @ @ @ @ @ @ @ @ @ @ @ @ @ @ @ @ @ @ @ @ @ @ @ @ @ @ @ : # @ @ @ & @ X @ @ @ @ @ @ @ @ @ @ @ @ @ @ @ # p @ @ @ @ @ @ @ @ @ @ ",
"@ @ @ @ @ @ @ @ @ @ @ @ @ @ @ @ % @ @ @ @ @ # % @ @ @ @ @ @ @ @ @ @ O @ O @ @ @ @ @ @ @ @ @ @ @ @ @ @ @ @ # @ @ @ @ @ @ @ @ @ @ ",
"@ @ @ @ @ @ # @ @ @ @ @ @ @ @ @ # @ @ @ @ @ @ # @ @ @ @ @ h C @ @ @ @ @ @ @ @ @ @ @ @ @ @ @ @ @ @ @ @ @ @ @ @ @ @ @ # @ @ @ @ @ ",
"@ @ @ @ @ @ : @ O M f @ # : @ O o @ @ @ @ @ @ @ @ @ @ @ @ J L @ @ @ @ @ @ @ @ @ @ @ @ @ @ @ @ @ @ @ @ @ @ @ @ @ @ @ @ @ @ @ @ @ ",
"@ @ @ @ @ @ @ @ - ! _ Q @ @ @ @ @ @ @ @ @ @ @ o @ @ @ @ @ @ % : @ @ @ @ @ @ @ @ @ @ @ @ @ p @ @ @ @ @ @ @ @ @ @ @ @ @ @ @ @ @ @ ",
"@ @ @ H s @ @ @ f +.( M @ @ @ @ @ @ @ @ @ @ @ X @ @ @ @ @ @ @ # @ @ : @ @ @ @ @ @ @ p # @ @ @ @ @ @ @ @ @ @ @ @ @ @ @ @ @ @ @ @ ",
"@ @ 2 E v @ @ @ @ K R M @ @ @ @ @ @ @ @ @ @ @ @ @ @ @ @ @ @ @ @ @ @ @ @ @ @ @ w y ; @ @ @ @ @ @ @ @ @ @ @ @ @ @ @ p @ @ @ @ @ @ ",
"@ @ @ @ @ @ @ @ @ @ @ @ @ @ @ @ @ p @ @ @ @ @ @ @ @ @ @ @ @ @ @ O o @ @ @ @ @ t z & @ @ @ @ @ @ @ @ @ @ @ @ @ @ @ # @ @ @ @ @ @ ",
"@ @ @ @ @ @ @ @ @ @ @ @ @ @ @ @ @ @ @ @ @ @ # @ @ @ @ @ @ @ @ @ O @ @ @ @ @ @ @ = @ @ @ @ @ @ @ @ @ . O @ @ @ @ @ @ @ @ @ @ @ @ ",
"@ O @ @ @ @ @ @ @ @ @ @ @ @ @ @ @ @ @ @ @ @ p @ @ @ @ : % @ @ @ @ @ @ # @ @ @ # # @ @ X . @ @ @ @ @ O @ @ @ @ @ @ @ @ # @ @ @ @ ",
"@ @ @ @ @ @ @ o @ . @ @ @ @ @ @ @ @ @ @ @ @ @ @ @ @ @ @ @ @ @ @ @ @ @ p @ @ @ @ @ @ @ @ @ @ @ @ @ @ @ @ @ @ @ @ @ @ @ # @ @ @ @ ",
"% @ @ @ @ @ @ X @ O @ @ p # @ @ @ @ @ @ @ @ @ @ @ O . @ @ @ & w 8 @ @ @ @ @ @ @ @ @ @ @ @ @ @ @ @ @ # @ @ @ @ @ p @ @ @ @ @ @ p ",
"@ @ @ @ @ @ @ p # @ @ @ @ @ @ @ @ @ @ @ o O @ @ @ @ o @ @ @ @ x k & @ @ @ @ @ @ @ @ @ @ @ @ @ @ @ @ @ @ @ @ @ @ @ p @ @ @ @ @ @ ",
"@ @ @ @ @ @ @ @ @ @ @ @ p @ @ @ @ @ @ p O O o @ @ @ @ @ 4 I F 0 , @ @ @ @ @ @ @ @ @ @ @ @ @ @ @ @ @ @ # O O @ @ @ @ @ @ @ @ @ @ ",
"@ @ @ @ @ @ @ @ @ @ @ @ @ @ @ @ o @ @ @ @ O o @ @ @ @ @ M / o.s @ @ @ @ @ @ @ @ @ @ @ @ @ @ @ @ @ @ @ p @ . O @ @ @ @ @ @ @ @ @ ",
"@ @ @ @ @ @ @ @ @ @ @ @ @ @ @ @ . @ @ @ @ @ @ @ @ @ @ @ @ Z M @ @ @ @ @ @ @ @ @ @ @ @ # @ @ @ @ @ @ @ @ @ @ @ @ @ @ @ @ @ @ @ @ ",
"@ @ @ @ @ @ @ @ @ @ @ @ @ @ @ @ # @ @ @ @ # @ @ @ @ @ @ o @ @ @ @ . o @ @ # @ @ @ p @ @ @ @ @ @ @ @ @ @ @ @ @ @ @ @ @ . . @ @ @ ",
"@ @ @ @ @ @ @ @ @ @ @ @ @ @ @ @ @ @ @ @ @ # p # @ @ @ @ o @ @ @ @ @ @ @ @ p @ @ @ # @ @ @ @ o . @ @ @ @ @ @ @ @ @ @ @ @ @ @ @ @ ",
"@ @ @ : @ @ @ @ @ @ @ @ @ @ @ @ @ @ # p @ @ @ @ @ @ p @ @ @ @ @ @ @ @ @ @ @ @ @ @ @ @ @ @ @ @ @ @ @ @ @ @ @ @ @ @ @ @ @ @ @ @ @ ",
"@ @ @ # X O @ @ @ @ @ @ @ @ @ @ @ @ @ @ @ @ @ @ @ @ @ @ @ p @ @ @ @ @ @ @ @ @ @ @ @ @ @ @ @ @ = @ @ @ @ @ @ @ @ @ @ @ @ @ @ @ @ ",
"@ @ @ @ o O @ @ @ = @ @ @ @ @ @ @ @ @ @ @ @ @ @ # @ @ @ @ @ @ @ @ @ @ @ @ @ @ @ @ @ @ @ @ @ @ @ @ @ @ @ @ @ @ @ @ @ @ @ @ @ @ @ ",
"@ @ @ @ @ @ @ @ @ @ @ @ @ @ @ @ @ @ @ @ @ @ @ @ p # @ @ @ @ @ . o @ @ @ @ @ @ @ @ @ @ @ @ @ @ @ @ @ @ @ @ @ @ @ @ @ @ @ @ @ @ @ ",
"@ @ @ @ @ @ @ @ @ @ @ @ @ @ @ @ @ O @ @ @ @ @ @ @ @ @ @ @ @ @ O @ @ @ @ @ @ : @ @ @ @ @ @ @ @ @ @ @ @ @ @ @ @ @ @ @ @ @ # @ @ @ ",
"@ @ @ @ @ @ @ @ & * @ @ @ @ @ @ @ . @ @ @ @ @ @ @ @ @ @ @ @ @ @ @ @ @ @ @ @ @ @ @ @ @ @ @ @ @ @ @ @ @ @ . O @ @ @ @ @ @ # @ @ @ ",
"@ @ @ @ @ @ @ @ r l 9 @ @ @ @ @ # @ @ @ @ @ @ @ O . O @ @ @ # p @ @ @ @ + $ @ @ @ @ @ @ @ @ @ @ @ @ @ @ @ @ @ @ @ @ @ @ @ @ @ @ ",
"@ @ @ @ @ @ @ @ u j @ @ @ @ @ @ # @ @ @ @ @ @ @ @ O @ @ @ @ @ @ @ @ @ @ h ..1 @ @ @ @ @ @ @ @ @ @ @ @ @ @ @ # @ @ @ @ @ @ @ @ @ ",
"@ @ @ @ @ @ @ @ % @ @ @ @ @ @ @ @ @ @ @ @ @ @ @ @ @ @ @ @ @ @ @ @ @ @ @ $ C 1 @ @ @ @ % # @ @ @ @ @ @ # @ @ % @ 1 @ @ @ @ @ @ @ ",
"@ @ @ o @ @ @ @ @ @ @ @ @ @ @ O o # @ @ @ @ @ @ @ @ @ @ @ @ @ @ @ @ @ @ O @ @ @ % : @ @ @ @ @ @ @ @ @ % @ @ @ @ % @ @ @ @ @ @ @ ",
"@ @ @ o o @ @ @ @ @ @ @ @ @ @ @ @ % @ @ @ @ @ @ @ @ @ @ @ @ @ @ @ @ @ @ @ @ @ @ @ @ @ @ @ @ @ @ @ @ @ f G # @ @ @ @ @ @ @ @ @ @ ",
"@ @ @ @ @ @ @ @ # % @ @ @ @ @ @ @ @ @ @ @ @ @ @ @ @ @ @ # @ @ @ @ @ @ @ @ @ @ @ @ @ @ @ @ @ @ @ @ @ @ B ) 7 @ @ @ @ @ @ @ % # @ ",
"@ @ @ @ @ @ @ @ # @ @ @ @ @ @ @ @ @ @ @ @ @ @ @ @ @ @ @ : @ @ @ @ @ @ @ @ @ @ @ @ @ @ @ @ . o @ f ^ @ @ 1 @ @ @ @ @ @ @ @ @ @ @ ",
"@ @ @ @ @ @ @ @ @ @ @ @ @ @ @ @ @ @ @ @ @ @ @ @ @ @ @ @ @ @ @ @ @ @ @ @ @ @ @ @ @ @ @ @ @ @ @ s ..P U @ @ @ @ @ @ @ @ @ @ @ @ @ ",
"@ @ @ @ @ @ @ @ @ @ @ @ @ @ @ @ @ @ @ @ @ @ @ @ @ # @ @ @ @ @ @ @ @ @ @ @ @ @ @ @ @ @ @ @ @ @ @ @.o.a @ @ @ @ @ @ @ @ @ @ @ @ @ ",
"@ @ @ p @ @ @ @ @ @ @ @ @ @ @ @ @ @ @ @ : @ @ @ @ % @ @ @ @ # : @ @ @ & @ @ @ @ @ @ @ @ % # @ @ 1 n @ O   @ @ @ @ @ @ @ @ @ @ @ ",
"@ @ @ @ @ @ @ @ @ @ . @ @ @ @ @ @ @ @ @ % @ @ @ @ X O @ @ @ @ @ @ @ @ : @ @ @ @ @ @ @ @ & @ @ @ @ # @ @ @ @ @ @ @ @ @ @ @ @ @ @ ",
"@ @ @ 3 Z @ @ @ @ @ @ @ @ @ @ @ @ @ @ @ @ @ @ @ @ O @ @ @ @ @ @ @ @ @ @ @ @ @ @ @ @ @ @ @ @ @ @ @ # # @ @ @ @ @ @ @ @ @ @ @ @ @ ",
"@ @ d { ] s @ @ @ @ @ @ @ @ @ @ @ @ @ @ @ @ @ @ @ @ @ @ @ @ @ O @ @ @ @ @ @ @ @ @ @ @ @ @ @ @ @ @ @ @ @ @ @ @ @ @ @ @ @ @ @ @ @ ",
"@ @ f #.] n @ @ @ @ @ @ @ @ @ @ @ o @ @ @ @ : % @ @ @ @ @ @ O o @ @ : @ @ @ # # @ @ @ @ @ @ @ @ @ @ @ @ @ @ @ @ @ @ @ @ @ @ @ @ ",
"@ @ % n A @ @ @ @ p # @ @ @ @ @ O $ % @ @ @ @ @ @ @ @ @ @ @ O @ : % O @ @ @ % # @ @ @ @ @ @ @ @ . @ @ @ @ @ @ @ @ @ @ @ # @ @ @ ",
"@ # % @ @ @ @ @ @ @ @ @ @ @ @ @ @ @ @ @ @ @ @ @ @ @ @ @ @ @ @ @ # @ o @ @ @ @ . @ @ @ @ @ @ @ @ @ @ @ @ p # @ @ @ @ @ @ # @ @ @ ",
"@ @ @ @ @ @ @ @ @ @ @ @ @ @ @ @ @ @ @ @ @ @ @ @ @ @ @ @ @ @ @ @ @ @ @ @ @ @ Y { f @ @ @ @ @ @ @ @ @ @ @ # @ @ @ @ @ @ @ @ @ @ @ ",
"@ @ @ @ @ @ @ @ p @ @ @ @ @ % @ @ @ @ @ @ @ @ @ @ @ @ @ @ @ @ @ @ @ @ @ @ @ X._ h @ @ @ @ @ @ @ @ @ @ @ @ @ @ @ @ @ @ @ @ @ @ @ ",
"@ @ @ @ @ @ @ @ @ @ @ @ @ @ @ @ @ @ @ @ @ @ @ @ @ @ @ @ @ @ @ @ @ @ @ @ @ @ d 3 @ @ @ @ @ @ @ @ @ @ @ @ @ @ @ @ @ O   @ @ @ @ @ ",
"@ @ @ @ @ @ @ @ @ @ @ @ @ @ @ @ @ @ @ @ @ @ @ @ @ @ @ @ @ @ @ @ @ @ @ @ @ @ @ @ @ @ @ @ @ @ @ @ @ @ @ @ @ @ @ @ @ @ @ @ @ @ @ @ ",
"@ @ @ @ @ @ @ @ @ @ @ @ @ @ @ @ @ @ @ @ @ @ @ @ @ # : @ @ @ @ @ @ @ @ @ @ @ @ @ @ @ % % @ @ @ @ @ @ @ @ @ @ @ @ @ @ @ @ @ @ @ @ ",
"@ @ @ @ @ @ @ @ @ @ @ @ @ @ @ @ X @ @ @ $ @ @ @ @ @ @ @ @ @ @ @ @ @ @ @ @ @ @ @ @ @ # @ @ % : @ @ @ @ @ @ @ p @ @ @ @ @ @ @ @ @ ",
"@ @ @ @ @ @ @ @ @ . o @ @ @ @ @ o @ @ d ) n @ @ @ @ @ @ @ @ @ @ @ @ @ @ @ @ @ @ @ @ @ @ @ @ @ @ @ @ @ @ @ @ @ @ @ @ @ @ @ @ @ @ ",
"@ @ @ @ @ @ @ @ @ O @ @ @ @ @ @ @ @ @ 5  .f O @ @ @ @ @ @ @ @ @ @ @ @ @ @ o   @ @ @ @ @ @ @ @ @ @ @ @ @ @ @ @ @ @ @ % # @ @ @ @ ",
"@ @ @ @ @ @ @ @ @ @ @ @ @ @ @ @ @ @ @ @ @ @ o O @ @ @ @ @ @ @ @ : @ @ @ @ @ @ @ @ @ @ @ @ @ @ @ @ @ @ @ @ @ @ @ @ @ @ @ @ @ @ @ ",
"o   @ @ @ @ @ @ @ @ @ @ @ @ @ @ @ @ @ @ @ @ @ @ @ @ @ @ @ @ @ @ * q 8 @ @ @ @ @ @ @ @ @ @ @ @ @ @ @ @ @ @ @ % @ @ @ @ @ @ @ @ @ ",
"@ @ @ @ @ @ @ @ @ @ @ @ @ @ @ @ @ @ @ @ @ @ @ @ @ @ @ @ @ @ @ @ & N y @ @ @ @ @ : o @ @ @ @ @ @ @ @ @ @ @ @ # @ @ @ @ @ @ @ @ @ ",
"@ @ @ = @ @ @ @ : @ @ @ @ @ @ @ @ @ @ @ @ @ @ @ @ @ @ @ O @ @ @ @ - > @ @ @ @ @ % . @ @ @ @ @ @ @ @ @ @ @ @ @ g M 4 @ @ @ @ @ @ ",
"@ @ @ @ @ @ @ O @ @ @ @ @ @ @ @ @ @ @ = # @ @ @ @ @ @ O X @ @ @ @ @ @ @ X @ @ @ @ @ @ @ @ @ @ @ @ @ @ @ @ @ @ D ( b @ @ @ @ @ @ ",
"@ @ @ @ @ @ @ . O @ @ @ @ @ @ @ @ @ : @ # @ @ @ @ @ @ O o @ @ @ @ @ @ @ o @ @ @ @ @ @ @ @ @ @ @ @ @ @ @ @ @ @ 1 R d @ @ @ @ @ @ ",
"@ # @ @ @ @ @ @ @ @ @ @ @ @ @ @ @ @ @ @ @ @ @ @ @ @ @ @ @ @ @ @ @ @ @ @ @ @ @ @ @ @ @ @ @ @ @ @ @ @ @ @ @ @ @ @ @ @ @ @ @ @ @ @ ",
"@ : O @ @ @ @ @ @ @ @ @ @ @ @ @ @ @ @ @ @ @ @ @ @ @ @ @ @ @ @ @ @ : @ @ @ @ @ @ @ @ @ @ @ @ @ @ @ @ @ @ @ @ @ @ @ @ @ @ @ @ @ @ ",
"@ @ . O @ @ @ @ @ @ @ @ @ @ @ O @ @ @ @ @ @ @ @ @ @ @ @ @ @ @ @ @ % @ @ @ @ @ @ @ @ : % @ @ 2 @ @ @ @ @ = @ @ @ @ @ @ @ @ @ @ @ ",
"@ @ @ @ @ @ @ @ @ @ @ @ @ @ @ @ @ @ @ @ @ @ @ @ @ @ @ @ @ @ @ @ @ @ @ @ @ @ @ @ % @ @ @ @ @ I E s @ @ @ = @ @ @ @ @ @ @ @ @ @ @ "
};
