/* XPM */
static char *_0e04533afb44c9ae4dff90db6f5a2f0fHQq6wmEe4thVTQT[] = {
/* columns rows colors chars-per-pixel */
"64 53 205 2 ",
"   c None",
".  c #010100",
"X  c #090704",
"o  c #050A04",
"O  c #0C0904",
"+  c #0B0C0C",
"@  c #160E00",
"#  c #120E09",
"$  c #011200",
"%  c #0B1807",
"&  c #1A1000",
"*  c #18160B",
"=  c #0F1810",
"-  c #101C11",
";  c #1A1C1C",
":  c #161A18",
">  c #261800",
",  c #2D1E07",
"<  c #241D12",
"1  c #321F0E",
"2  c #0E2000",
"3  c #002500",
"4  c #132414",
"5  c #162C17",
"6  c #172B18",
"7  c #192D1A",
"8  c #1A2B17",
"9  c #143215",
"0  c #1C321C",
"q  c #193616",
"w  c #183200",
"e  c #242509",
"r  c #342100",
"t  c #392505",
"y  c #3B2411",
"u  c #352A19",
"i  c #383514",
"p  c #292914",
"a  c #1F3321",
"s  c #2A2E2D",
"d  c #252727",
"f  c #29382B",
"g  c #35372A",
"h  c #4B3807",
"j  c #5D3A00",
"k  c #5E3B0D",
"l  c #452C14",
"z  c #4A2E15",
"x  c #48361A",
"c  c #55381A",
"v  c #623D00",
"b  c #463823",
"n  c #523922",
"m  c #503720",
"M  c #015502",
"N  c #025E02",
"B  c #1E4413",
"V  c #095302",
"C  c #255800",
"Z  c #285B00",
"A  c #375E00",
"S  c #224714",
"D  c #295811",
"F  c #006300",
"G  c #056900",
"H  c #086D00",
"J  c #0C6200",
"K  c #196906",
"L  c #0D7301",
"P  c #137A00",
"I  c #324636",
"U  c #384B3C",
"Y  c #307934",
"T  c #555F15",
"R  c #7C4D02",
"E  c #744903",
"W  c #6A5500",
"Q  c #7B5300",
"!  c #7D5C00",
"~  c #775400",
"^  c #6E4E00",
"/  c #406A00",
"(  c #584529",
")  c #5A4B39",
"_  c #4C4230",
"`  c #3D4343",
"'  c #3D5142",
"]  c #454C4B",
"[  c #484F4E",
"{  c #424846",
"}  c #465548",
"|  c #4B5651",
" . c #535E54",
".. c #645543",
"X. c #55685C",
"o. c #5B6E63",
"O. c #6C6C6C",
"+. c #6E7A70",
"@. c #835200",
"#. c #8E5B00",
"$. c #8C5B09",
"%. c #865707",
"&. c #905D00",
"*. c #905F0E",
"=. c #805B1B",
"-. c #966505",
";. c #9A7303",
":. c #89631D",
">. c #966618",
",. c #886800",
"<. c #A97300",
"1. c #B07800",
"2. c #8E6620",
"3. c #A27123",
"4. c #A07E4C",
"5. c #329F00",
"6. c #3FA503",
"7. c #3A8835",
"8. c #508A08",
"9. c #4C8C07",
"0. c #679800",
"q. c #49AA05",
"w. c #46B700",
"e. c #4CBB01",
"r. c #4CB403",
"t. c #51BE01",
"y. c #4FC100",
"u. c #54C600",
"i. c #66C706",
"p. c #73857C",
"a. c #978A00",
"s. c #AC8500",
"d. c #B08A00",
"f. c #B5A800",
"g. c #D89A00",
"h. c #C18E00",
"j. c #C9A900",
"k. c #D1BB00",
"l. c #F5B400",
"z. c #FFBC00",
"x. c #EFB700",
"c. c #C4C500",
"v. c #DEC400",
"b. c #FECC00",
"n. c #FFC400",
"m. c #F8DC00",
"M. c #EECD00",
"N. c #EDE700",
"B. c #FBE500",
"V. c #FCEA00",
"C. c #F3E100",
"Z. c #EFE21E",
"A. c #AB8852",
"S. c #C69A55",
"D. c #D09F52",
"F. c #D5A356",
"G. c #C49E71",
"H. c #CEA463",
"J. c #D7A966",
"K. c #D6AC71",
"L. c #E2B36C",
"P. c #EAB86D",
"I. c #E5B368",
"U. c #F1BD65",
"Y. c #EFBD72",
"T. c #E7BB79",
"R. c #F0BE73",
"E. c #83D646",
"W. c #F0C079",
"Q. c #7B8A86",
"!. c #858E88",
"~. c #82928D",
"^. c #899695",
"/. c #879893",
"(. c #959C95",
"). c #A4998F",
"_. c #90A19D",
"`. c #9BAAA5",
"'. c #98A8A5",
"]. c #9FB0AD",
"[. c #A1ADAA",
"{. c #A0B0AE",
"}. c #A5B6B4",
"|. c #A7B8B6",
" X c #A8B9B7",
".X c #AABBB9",
"XX c #B6B8B3",
"oX c #DCBC86",
"OX c #C1B8B0",
"+X c #B3C1BE",
"@X c #BAD5BA",
"#X c #FCCB8E",
"$X c #FECD93",
"%X c #B6C4C3",
"&X c #C7CAC9",
"*X c #D6CEC5",
"=X c #C4D4CA",
"-X c #CCD7D6",
";X c #D4D9D6",
":X c #D7D1CB",
">X c #F9E8D2",
",X c #E6E8E6",
"<X c #FDF2E3",
"1X c #F3F6F5",
"2X c #FEFEFE",
/* pixels */
"                                                                                                                                ",
"                                                                                                                                ",
"                                                                                                                                ",
"                                    . . . . . . . . . . .                                                                       ",
"                                    C C C C C C C C C X .                                                                       ",
"                              . . . u.u.u.u.u.u.u.u.u.$ . . . .                                                                 ",
"                        . . . F P u.u.u.u.u.u.u.u.u.u.u.u.u.u.t..                                                               ",
"                        r r r A / 0.8.8.8.8.8.8.8.9.5.u.u.u.u.e..                                                               ",
"                      @.@.@.@.@.@.@.z z z z z z z i F y.u.u.u.e.. . .                                                           ",
"                  @.s.V.V.V.V.V.m.z.z.z.z.z.z.z.z.l.@.J F F F F F o . .                                                         ",
"                  d.j.V.V.V.V.V.B.b.b.b.z.z.z.z.z.l.1.A Z G F F F 3 3 .                                                         ",
"                @.V.V.V.V.V.V.V.V.V.V.B.z.z.z.z.z.z.z.#.~ F F F F F N .                                                         ",
"            @.d.V.V.V.V.V.V.V.V.V.V.V.V.V.z.z.z.z.z.z.z.l.@.J F F F N . . .                                                     ",
"            s.j.V.V.V.V.V.V.V.k.v.V.V.B.m.z.z.z.g.g.g.z.l.<.A Z F F F 3 . .                                                     ",
"          @.V.V.V.V.V.V.V.V.V.@.;.V.V.B.z.z.z.z.@.@.@.l.z.z.&.~ F F F F $ .                                 . . . . . . .       ",
"            @.@.@.@.j . . > @.B.V.V.V.k.. . & @.P.Y.Y.%.&.z.&.Q F F F F $ .                               . = 6 .X;X2X. .       ",
"            @.@.@.@.h . b x j B.V.V.f.a.> > t 3.P.Y.Y.%.&.z.&.Q F F F F $ .                               + f ' Q.%X,X. .       ",
"                      . P.A.. C.V.V.o & @.@.>.Y.Y.Y.Y.$.&.z.&.~ F F F F o .                           . . 6 +. X5 +..X. .       ",
"                      . . > @.@.@.%.. . . . . . L.Y.Y.$.#.z.&.R . . o F $ .                         . = 6  Xo.7 |. ..           ",
"                      . . > v 3.>.v s d . . X s D.F.Y.$.&.z.&.R u X . F $ .                         o f ' %XQ.' Q.[ .           ",
"      . . . . . . . . . . . . #XG.. |.^.. . ; .X%.>.P.$.#.z.-.$.W.* . F $ .                     . . 6 p.|.2X;X.X.               ",
"      . [  X|.|.|.2XOXz 1X<X#X$X$X#X2X:X. . d 2XR.Y.Y.# O @.I.J.X M F F o .   . . .           . - 6 |.X.0 .X| .                 ",
"      . [ .X(.(.(.:X).y <X>XT.$X$X$X<X*Xu u ) <XW.Y.Y.# O >.F.S.$ M F M $ .   X o o           o f U /.X.U ~.{ .                 ",
"      . [ .Xz z z z 1 . $XJ.Q $X$X$X$X$X$XY.Y.Y.Y.Y.Y.# * Y.$.~ F F N .     . 4 6 6 o .   . . 6 Q.|.6 p..X.                     ",
"      . O.2Xz v %.@.@.R X b $X$X$X$X$X$X$XW.P.Y.Y.W.Y.@ O @.M.C.@.J N .     . 4 7 .Xs . . - 6 |.| 7 |.] +                       ",
"      . O.2Xz k R @.@.@.& m K.$X$X$X$X$X#XY.W.Y.Y.P.S.% % W c.c.^ J M o     o 4 7 .Xs . o 4 6 .Xo.I ^.` .                       ",
"      . O.2Xz k @.@.@.@.@.v . $X$X$X$X$XY.Y.P.W.Y.H.. N N F F F F 9 7 6 6 6 6 6 7 .Xs . 6 6 5 .X.X.X.                           ",
"      . O.2Xz k @.@.@.@.8 T C.# + X o O O o O O X + 6 e.u.y.u.e.7 q.u.t.t.t.u.S 7 7 o . R i 6 0 = o                             ",
"      . O.2Xz k @.:.:.:.6 T Z.$ $ % 2 % o $ $ 2 $ $ 6 t.u.w.q.q.9 6.w.w.u.u.u.D B 4 e , &.( p 6 + o                             ",
"      . O.2Xz v @..X.X.X7 ' .XF P u.u.q.6 F L u.G N 6 t.e.F 9 5 F F F F w.u.u.u.u.. h.z.z.<.Q 6 7 7 .                           ",
"      . O.2XX . . .X&X2XF Y .X1X@XG G G N 9 B u.q q u.u.e.F 9 6 9 6 5 5 N H u.u.u.t.w O @.i 8 6 5 5 6 + .                       ",
"      . O.2X. O < %X-X2XL 7.%X2X=XN M M M 9 B r.S D u.u.e.F 9 7 4 6 7 7 V J r.e.w.e.w . ^ i 5 5 f I f - .                       ",
"      . O.2X. ( Y.2X2X2Xu.E.2X2X&X. . . . F N 6 u.u.u.u.e.F 9 4 .       6 6 6 M F F $ . . 4 6 6 Q. X.X{ .                       ",
"      . [ +X. ) R..X-X2Xq } .X2X*Xl l y . N F F t.u.u.u.u.y.% o         o . o 4 5 . A.L.L.i o . o + + . .                       ",
"      . [ .XX n J..X=X1XI  ..X1X&Xz z y . K K K i.i.i.i.i.i.e *         . o . 4 6 . 4.J.J.b . . . . . . .                       ",
"      . [ .Xx ; . .X.X.XY.T..X.X(.z z y . P.U.z.B.B.n.P.R.R.Y.L..     . 4 6 6 6 6 . . . .                                       ",
"          # [.4.l m m m n c n n c z [.!.. %.;.B.n.n.B.-.$.$.$.%..     . /.'.6 o X                                               ",
"          . %X!.z z z z z z z z l z '.Q.o ! ;.N.x.M.N.,.! %.~ ^ .     . ~.'.4 o .                                               ",
"          . 2XXXz z z z z z z z z z . o F u.u.u.u.u.u.u.u.u.G N .       . . .                                                   ",
"            : | [.z z z z z z z ) ].o $ F H H H H H H H H H F F N o .                                                           ",
"            . ` ].n m z z z z n ..[.o $ F N N F N F N N N F N N N o .                                                           ",
"                . .X!.z z z z  X/.6 6 5 6 6 6 7 6 6 6 6 6 6 6 6 6 6 6 6                                                         ",
"                  ; { `.,X:X[.; : 9 6 I '.'.~..           X 6 6 5 /._.o                                                         ",
"                  . g {.1X,X[.+ = d 6 I .X{.^..           . 4 6 5 '.{.+                                                         ",
"                      . .XQ..  X.X.X7 I .Xo .               . X 6 '..X.X; .                                                     ",
"                        ; n H.oXH.:.8 6 ;                   . . b ! 2.oX< .                                                     ",
"                        X b P.P.F.@.6 4 .                   . . z R %.P.p .                                                     ",
"                      . l c @.@.E z . .                     . X z R @.@.c z .                                                   ",
"                      . O O & @ @ O                             O @ @ @ O O .                                                   ",
"                      . . . . . . .                             . . . . . . .                                                   ",
"                                                                                                                                ",
"                                                                                                                                ",
"                                                                                                                                "
};
