/* XPM */
static char *_e8dedfeeb3d47bc9bfade9d9649f663LNJO9DbjaS4b4n30[] = {
/* columns rows colors chars-per-pixel */
"64 64 165 2 ",
"   c None",
".  c #6B5F14",
"X  c #7A6B0E",
"o  c #71640E",
"O  c #7F700F",
"+  c #756812",
"@  c #7B6C12",
"#  c #7C6E18",
"$  c #7F7118",
"%  c #82720F",
"&  c #88760F",
"*  c #8F7D0F",
"=  c #847411",
"-  c #887711",
";  c #8E7C13",
":  c #81721B",
">  c #907E13",
",  c #917E19",
"<  c #8A7B24",
"1  c #847624",
"2  c #8F8017",
"3  c #928012",
"4  c #988416",
"5  c #9D8917",
"6  c #93811C",
"7  c #A28E18",
"8  c #A6911B",
"9  c #AB9619",
"0  c #AE991B",
"q  c #B49E1B",
"w  c #BFA717",
"e  c #B6A01D",
"r  c #BDA61D",
"t  c #BFA81B",
"y  c #938120",
"u  c #998823",
"i  c #95852B",
"p  c #99872E",
"a  c #97882A",
"s  c #8E8033",
"d  c #968633",
"f  c #9D8D33",
"g  c #AD9922",
"h  c #B29D2B",
"j  c #A08F3D",
"k  c #A8983C",
"l  c #B39F36",
"z  c #BFAA26",
"x  c #B5A02B",
"c  c #BEA82B",
"v  c #BAA521",
"b  c #B3A032",
"n  c #B7A339",
"m  c #C0A91F",
"M  c #C2AB22",
"N  c #C2AC29",
"B  c #C7B020",
"V  c #CCB521",
"C  c #D6BC22",
"Z  c #C5AF31",
"A  c #C7B23A",
"S  c #C8B33D",
"D  c #E5CC29",
"F  c #E5CD30",
"G  c #E5CE3D",
"H  c #EAD13A",
"J  c #FFE22C",
"K  c #FEE332",
"L  c #FFE33A",
"P  c #9D8F40",
"I  c #988C4C",
"U  c #9F9047",
"Y  c #9F9352",
"T  c #A49442",
"R  c #A5974E",
"E  c #A99A4B",
"W  c #AB9D53",
"Q  c #AC9F5B",
"!  c #B7A740",
"~  c #B9A740",
"^  c #BBAA44",
"/  c #BCAB4D",
"(  c #AFA158",
")  c #BFAD50",
"_  c #B5A75B",
"`  c #B7AA60",
"'  c #BAAE64",
"]  c #BBAE69",
"[  c #BDB16C",
"{  c #CAB544",
"}  c #CEBA47",
"|  c #C1B148",
" . c #CCB749",
".. c #CDB94C",
"X. c #D1BE4F",
"o. c #C5B452",
"O. c #C6B559",
"+. c #CBBB5C",
"@. c #D3BF51",
"#. c #CBBB61",
"$. c #C4B76D",
"%. c #C6BA73",
"&. c #C8BC7B",
"*. c #D4C252",
"=. c #D9C754",
"-. c #D8C65D",
";. c #DBC95B",
":. c #E4CF4D",
">. c #E2CF5B",
",. c #E7D45C",
"<. c #EAD75D",
"1. c #F0DD5F",
"2. c #FFE444",
"3. c #FEE653",
"4. c #FDE75B",
"5. c #DECD64",
"6. c #D9C96F",
"7. c #D2C26A",
"8. c #DACB71",
"9. c #DCCE78",
"0. c #EDDB66",
"q. c #F3DF62",
"w. c #E5D574",
"e. c #E7D87E",
"r. c #E7D879",
"t. c #FBE664",
"y. c #FDEA67",
"u. c #F9E56A",
"i. c #FFEB69",
"p. c #F4E269",
"a. c #FFEB73",
"s. c #FEEC7B",
"d. c #D4C983",
"f. c #D5CB8B",
"g. c #D6C982",
"h. c #DED28B",
"j. c #DBD194",
"k. c #EBDC84",
"l. c #E5DB9B",
"z. c #E3D893",
"x. c #EFE189",
"c. c #FEED83",
"v. c #F2E48C",
"b. c #F6E88D",
"n. c #FDEE8B",
"m. c #ECE19F",
"M. c #F5E791",
"N. c #F6E992",
"B. c #FCEE93",
"V. c #F3E79D",
"C. c #FCEF9A",
"Z. c #FEF095",
"A. c #FFF19A",
"S. c #E6DDA1",
"D. c #EDE3A2",
"F. c #EFE6AB",
"G. c #F0E6AC",
"H. c #F2EAAD",
"J. c #FFF2A4",
"K. c #FEF4AD",
"L. c #F4EBB2",
"P. c #FCF3B4",
"I. c #FEF6BC",
"U. c #FEF7C1",
"Y. c #FFF8C1",
/* pixels */
"                                                                                                M M C C                         ",
"                                                                                      M m m m m B C m q                         ",
"                                                                            M m m m m m m m m M V w q 9 9                       ",
"                                                                M m m m m m m m m m m m m m V V r 9 9 9 9                       ",
"                                                      M m m t v M m m m m m m t m m m m m V m e 9 9 9 9 9 9                     ",
"                                          M m m m m M m m m M t m m m m m m v M m m m m m m e 9 9 9 9 9 9 9                     ",
"                                      r.;.N m m m m m m m m m M m m m m m m m m m m m m m w 9 9 9 9 9 9 9 9 9                   ",
"                                      p.5.N m m m m m m m m m t m m m m m m m m m m m w q 9 9 9 9 9 9 9 9 9 9                   ",
"                                    L 4.;.M m m m t m m m m m m t M t v t M t m m m t q 9 9 9 9 9 9 9 9 9 9 9 g                 ",
"                                  J J 3.:.N m m m m m m m m m m M t M m t t t t m t q 9 9 9 9 9 9 9 9 9 9 9 9 9                 ",
"                                  J K L G M m m m m m m m m m m m m m N S ......z q 0 9 9 9 9 9 9 9 9 9 9 9 9 9                 ",
"                                J J J K F M m m m t w w m m Z { { ..X.;.w.v.v.k.o.h 9 9 9 9 9 9 9 9 9 9 9 9 9 9 9               ",
"                                J J J J D m t m M A {  ...*.5.e.v.b.b.b.B.A.A.B.e.^ 9 9 9 9 9 9 9 9 9 9 9 9 9 9 9               ",
"                              J J J J J H } { } =.w.x.M.b.n.N.Z.A.B.A.Z.A.Z.A.Z.M.O.g 9 9 9 9 9 9 9 9 9 9 9 9 9 9 9             ",
"                            J J J J J L u.N.N.N.N.B.B.A.Z.A.A.Z.Z.A.A.A.A.Z.A.A.N.8.^ 9 9 9 9 9 9 9 9 9 9 9 9 9 9 9             ",
"                            J J J J J 4.c.A.A.A.Z.A.Z.A.A.A.Z.A.A.Z.Z.A.Z.A.A.Z.C.M.#.g 9 9 9 9 9 9 9 9 9 9 9 9 9 9 0           ",
"                          J J J J J 2.s.Z.Z.A.A.A.Z.A.A.Z.A.A.A.A.Z.A.A.Z.A.A.Z.A.B.8.n 9 9 9 9 9 9 9 9 9 9 9 9 9 9 9           ",
"                        J J J J J L i.n.A.A.A.Z.A.Z.Z.A.Z.A.A.Z.A.A.Z.Z.A.A.Z.A.A.C.x.#.9 9 9 9 9 9 9 9 9 9 9 9 9 9 9 9         ",
"                        J J J J K 3.c.A.A.Z.Z.A.Z.A.A.A.A.A.Z.A.Z.A.A.A.Z.A.Z.A.A.Z.C.8.b 9 9 9 9 9 9 9 9 9 9 9 9 9 9 9         ",
"                      J J J J J L s.B.A.A.A.Z.A.A.A.Z.Z.Z.A.A.A.A.A.Z.A.Z.A.A.A.A.A.A.k.+.g 9 9 9 9 9 9 9 9 9 9 9 9 9 9 9       ",
"                    J J J J J L 4.n.A.A.Z.A.Z.A.A.A.Z.A.A.Z.A.Z.A.A.A.Z.A.A.Z.Z.Z.A.Z.C.9.h 9 9 9 9 9 9 9 9 9 9 9 9 9 9 9       ",
"                    K J J J K 3.n.J.A.A.A.J.A.A.A.J.A.J.A.J.A.J.A.A.J.A.A.J.A.J.A.J.J.A.k.o.g 9 9 9 9 9 9 9 9 9 9 9 9 9 9 9     ",
"                  J J J J J 2.s.P.I.I.I.I.I.U.I.I.I.I.I.I.I.I.I.I.I.I.I.I.I.I.I.I.I.I.I.L.h.l 9 9 9 9 9 9 9 9 9 9 9 9 9 9 9     ",
"                J J J J J K i.K.I.U.U.U.U.U.U.U.U.U.U.U.U.U.U.U.Y.Y.Y.Y.U.U.Y.I.Y.U.U.U.I.D.) g 9 9 9 9 9 9 9 9 9 9 9 9 9 9 9   ",
"                J J J J J 4.B.I.Y.U.U.U.Y.U.U.U.U.U.U.U.Y.U.U.U.U.U.Y.U.U.U.U.U.U.U.U.U.U.L.g.n 9 9 9 9 9 9 9 9 9 9 9 9 9 9 9   ",
"              J J J J J L s.P.I.I.U.I.I.Y.I.I.I.I.U.U.I.Y.I.I.I.I.I.Y.I.I.U.I.I.I.U.I.U.I.I.D.) g 9 9 9 9 9 9 9 9 9 9 9 9 9 8 9 ",
"              J J J J K t.Z.K.K.K.P.P.K.P.K.K.K.K.K.K.K.K.K.K.K.K.P.P.K.P.P.P.K.P.K.K.K.K.K.V.+.h q 0 0 9 0 0 q 0 q 0 0 0 0 0 0 ",
"            J J J J J 2.a.A.A.A.A.A.A.A.A.A.A.A.A.J.A.A.J.A.A.A.A.A.A.A.A.A.A.A.A.A.A.A.A.A.v...z r t t r t r t v m t t t t v v ",
"          K J J J J L a.Z.Z.A.A.A.A.Z.A.A.Z.Z.A.A.A.Z.A.A.Z.Z.A.A.A.Z.A.A.Z.A.A.A.Z.A.A.A.N.e.A v m m m M t v m m m m m v m m   ",
"          J J J J K 3.n.J.A.A.A.A.J.J.A.J.A.J.A.J.A.J.A.J.A.J.A.A.J.A.A.A.J.J.A.J.C.A.J.C.k. .N M m m m t M M m m m m m M M     ",
"        K J J J J 2.B.P.I.I.I.I.I.I.I.I.I.I.I.I.I.I.I.I.I.I.I.I.I.I.I.I.I.I.I.I.I.I.I.I.D.7.N M M m m m m t m m m m m m t M     ",
"      J J J J J L a.K.I.Y.I.Y.Y.Y.Y.I.Y.Y.Y.I.Y.U.U.I.Y.Y.U.I.U.Y.Y.Y.Y.I.Y.Y.I.U.U.U.P.f.k 7 q r m m m m M m m m m m v M       ",
"      J J J J L t.J.I.U.U.U.U.U.U.U.U.U.U.U.U.U.U.U.U.U.U.U.U.U.Y.Y.U.U.U.U.U.U.U.U.U.l.( , > 7 9 r m m m m m m m m m m         ",
"    J J K L 3.a.Z.P.I.U.U.Y.U.U.U.U.U.U.U.U.U.U.U.U.U.U.U.U.U.U.Y.I.U.U.U.U.U.U.U.U.L.&.< ; ; > , 9 q r m m m m m m m M         ",
"  K L 2.4.s.Z.J.J.P.I.U.U.U.U.U.U.U.U.U.U.Y.U.U.U.U.U.U.U.U.U.U.U.U.U.U.U.U.U.U.U.L.f.T , > > > > > 7 9 r m m m m m m           ",
"  3.i.c.A.J.J.K.K.K.I.U.U.U.U.U.U.U.U.U.U.U.U.U.U.U.U.U.U.U.U.U.U.U.U.U.U.U.U.U.U.D.$., , > > > > > > > 8 r m m m m             ",
"c.Z.A.J.K.J.K.J.J.J.I.I.U.U.U.U.U.U.U.U.U.U.U.U.U.U.U.U.U.U.U.U.U.U.U.U.U.U.U.U.L.&.j ; > ; ; > > > ; > > 8 w m m M             ",
"J.J.K.J.J.J.A.Z.c.c.J.I.U.U.U.U.U.U.U.U.U.U.U.U.U.U.U.U.U.U.U.U.U.U.U.U.U.Y.U.I.l.W ; * ; ; > ; ; > ; ; ; > , 0 r               ",
"J.J.J.A.n.c.n.Z.c.a.c.K.Y.U.U.U.U.U.U.U.U.U.U.U.U.U.U.U.U.U.U.U.U.U.U.U.U.U.I.F.$.< > ; ; > ; ; ; ; > ; ; ; > ,                 ",
"  c.c.n.c.a.a.a.a.i.a.J.I.U.U.U.U.U.U.U.U.U.U.U.U.U.U.U.U.U.U.U.U.U.U.U.U.U.L.d.j ; ; ; ; > ; > > ; ; ; ; > ; >                 ",
"  a.a.a.a.i.i.i.i.i.i.A.P.I.Y.Y.U.U.U.U.U.U.U.U.U.U.U.U.U.U.U.U.U.U.U.U.U.I.S.W y ; > ; ; ; ; ; ; > ; > ; > >                   ",
"    i.i.y.i.i.i.y.i.i.s.K.I.Y.Y.U.U.U.U.U.U.U.U.U.U.U.U.U.U.U.U.U.U.U.U.U.F.%.i ; ; ; ; > ; ; ; ; ; ; ; ; > >                   ",
"    i.i.i.i.i.i.i.i.i.a.A.I.Y.Y.U.U.U.U.U.U.U.U.U.U.U.U.U.U.U.U.U.U.U.U.I.j.T , > ; > ; ; ; ; , > ; > ; > ;                     ",
"    i.i.y.i.i.i.i.i.i.i.n.K.I.Y.U.U.U.U.U.U.U.U.U.U.U.U.U.U.U.U.U.U.U.U.S._ , > ; ; > ; ; ; ; ; > ; ; ; ; ,                     ",
"      i.i.y.i.i.i.i.i.i.s.A.I.U.U.U.U.U.U.U.U.U.U.U.U.U.U.Y.Y.Y.U.U.I.L.d.i ; ; ; > ; ; ; ; ; ; ; ; ; > >                       ",
"      i.i.i.i.i.i.i.i.i.a.N.I.U.U.U.U.U.U.U.U.U.U.U.U.U.U.Y.Y.Y.U.U.I.j.R , ; ; ; ; > ; ; ; ; , ; > ; ,                         ",
"        y.i.i.y.i.i.i.i.i.c.K.I.U.U.U.U.U.U.Y.Y.U.U.I.I.U.I.L.L.L.F.S.[ 6 ; ; ; > > ; ; > ; ; > ; > ;                           ",
"        i.i.i.i.i.i.i.i.i.a.Z.I.U.U.U.U.I.I.I.L.L.H.H.F.m.j.d.$.` ( Y d ; ; ; ; ; ; ; ; ; ; ; ; ; ; ;                           ",
"          i.i.i.i.i.i.i.i.i.c.K.L.F.F.F.F.j.d.[ ( ( W R T k f 5 4 3 * & - > > ; ; ; ; > ; ; ; > > ;                             ",
"          i.i.i.i.i.i.i.i.i.0.' ( Y I I U U s $ $ 2 2 2 3 3 2 3 3 3 > > - - - > > > ; ; > > ; ; ;                               ",
"          i.i.i.i.i.i.i.y.t.=.i $ @ X O - - O X X * 2 3 3 3 3 3 3 3 3 * - & ; > ; ; > ; ; ; > ; >                               ",
"            i.i.i.i.i.i.y.,.k O X X X X - 2 O X O - 3 3 3 3 3 3 3 3 > > > - - > > > ; ; > ; ; ;                                 ",
"            i.i.i.i.i.i.y.;.1 X X X X O - & O X X = 2 3 3 3 3 3 3 3 3 3 * * & - ; ; ; ; ; > ; >                                 ",
"              i.i.y.i.y.y.*.$ X X X X X - * O X O = * 3 3 3 3 3 3 * 3 3 4 * - - ; ; ; ; ; > ;                                   ",
"              i.y.i.i.i.,.! $ @ X X X O - 3 O X X O * 3 3 3 3 3 3 3 3 3 > > ; = - , ; ; ; ; ;                                   ",
"              i.i.i.y.y.*.y X X X X X O - - O X X O - 3 3 3 3 3 3 3 3 3 > > > ; = - ; ; > ;                                     ",
"                i.i.y.y.*.# X X X X X O * - O O X X * 3 3 3 3 3 3 3 3 3 3 3 3 * = = ; > ;                                       ",
"                i.i.y.1.^ @ X X X X X X * ; % X X X - 3 3 3 3 3 3 3 3 3 3 3 3 3 ; = - ; >                                       ",
"                i.i.y.=.a X X X X X X % - ; % X X X - 3 3 3 3 3 3 3 3 3 3 3 3 3 ; ; - -                                         ",
"                  a.y.^ # X X o X X X O ; ; = O X X - 3 3 3 3 3 3 3 * 3 3 3 3 3 3 ; =                                           ",
"                  y.q.^ + o X X X X X = ; ; = X X X ; 2 3 3 3 3 3 3 3 3 3 4                                                     ",
"                  p.*.f X X X X X X X % 2 3 - O X X & 3 3 6                                                                     ",
"                    d $ X X X X X X X = ; 3                                                                                     ",
"                    . o @ @ $                                                                                                   "
};
