/* XPM */
static char *_5b3fb7c392249f7ca78091cecfd93c5OLdewK8mPWhui1xj[] = {
/* columns rows colors chars-per-pixel */
"64 64 50 1 ",
"  c #120111",
". c #1A0A17",
"X c #1D0D19",
"o c #1E131E",
"O c #22131C",
"+ c #251A23",
"@ c #2A1C24",
"# c #252227",
"$ c #2C2027",
"% c #272529",
"& c #2D242B",
"* c #30272E",
"= c #31292E",
"- c #2F2A31",
"; c #322B31",
": c #363136",
"> c #393637",
", c #363438",
"< c #393639",
"1 c #36383B",
"2 c #3C3B3D",
"3 c #3E3E41",
"4 c #403F40",
"5 c #3E4142",
"6 c #414242",
"7 c #444648",
"8 c #454B4B",
"9 c #494D4E",
"0 c #51514F",
"q c #4C4F50",
"w c #4C5252",
"e c #515556",
"r c #575957",
"t c #525758",
"y c #535B5B",
"u c #5C5E5C",
"i c #5D615F",
"p c #60615E",
"a c #585F60",
"s c #5A6262",
"d c #626664",
"f c #676965",
"g c #696A67",
"h c #616968",
"j c #6B6E6B",
"k c #6B716F",
"l c #6F7471",
"z c #737672",
"x c #7D7E79",
"c c #82847E",
/* pixels */
"888wyye889yyi8999iyw89wiyy5w9wii5w99yye599yyi899wiyw899iyy8899iy",
"266789w45588y26678w555975955665a56668ww67578y25658y547988566688y",
">454463664445265647456445656446915566666644655646556444655665668",
",644662424645>65466264>466565665>5525525>4445264556342>655566665",
"$>*:>21;;1>28=>=,25,<=,>22;1=>26%>%>>>>:;,,>7=>*>>6,>=1>22;>=226",
"7ew8589eie5589ew5789yy9758wey5686ew8888eyw778www568wyy9558www558",
"89e877888966998e46788w858988w57889e866889947888e558889968999w688",
"4593248655665668,2485854666652666685468685646768>268685265665>66",
"4471;4775544>248::48745442258,>66462:47744462448::47745662448>>4",
"246,:,,4552>:467&::>4452:;655=:>246>:,,4462>;247$:,>2432->446=::",
">17366<*;>**&=*2$&@&*>2,=:335>55156276,%%:##-5,5===**=;*#&*=4O$*",
"888www7*=%*$%=:,>>:@2889955989yy858wee7OOOO #iyuiid7$**$%@$>2>=O",
"<644687;;:22=****1,,wissi556647e226848>@**@@+37uyzx7=:,24%>46864",
">644461$&;;;:&=-**=,589ey9664647264466>=*@@@O24444r0@===:=:7888q",
"=422641&@@@&$@=&***&564588>2>668>2:1441=*;@@+:2,247>$$@$=O$2eii6",
"@:$;:2<$;@@@$@@@$$%=666462=:=::5=:=:,1>%@$$@O@;;=>7>$=$@$$$:7j0:",
"9yi989wiiy889yii559->>>>67yyi8999iiq899yyy898;$#@*;8yye8855=296:",
"78e755559856w58w656=%#$$=787925755w76798886585>==22789w4537732:6",
"4482>6w565466556116>=:;=;<445,266672665466645488244465443*>67:>4",
"446>:6584544>258>>52>2>2>;448,,4667241>46344>448:4444432=O,5523>",
",26:==:>55>=;526O:=:241>$:226$:=,36;>*,>26,;=>28*,;:>2>:$&,>5>,*",
"5585www558wwy5585ew87797w7+o%.oo5595yw4$%==*=5597wr87897ww5795yw",
"657889w45888i27799w86798we+@@@O 585w897=664,$66789y75798ee15789y",
">6665776566692446593444276@;*@@.255566789842*2644694542278*>665w",
">6444454244452446662622272*-@@$O>622655i9ey7:>424652442255,,>347",
"=3:1461>:>246:4:>66,2>,742-;=*@O>2:>44,5li76*;>2>47>>1>765:=--67",
">662156785128152$&:;&=&$*>&:2Oo.###>131%i44;;668115588612555656w",
"9ey9889eye7858yi==%*@@OO$;27e      >895$54:>7wws789weye589weiwws",
"55956676856697682w64;*OO*:266.     :446==:44665e>46768644875865y",
"6572:487656w6448:u84,*X+$&,22o     ::462>>42>657>249765444648348",
"446::>2465872747&w54:&X+@&342@..  O$:>2444::;447::>26452>:445245",
"::6,-;::>22,;117&744*@XX$$::,=OOOO$$=%=>,2*;%;,5*-*::12>-=::7::8",
"8899iy7:55853899*:2*+X:wsq@@$$$@8899iye599yyi##$@@O *99iyy898iis",
"25898w97ssii82762*5%.$=>t7**>,2;26898ew57559i22>>&$.%7689w47579i",
"14448e9889yyy269568#@@*2w5**==;,>6468yw5466455k84:&O#5>665669655",
">42159845578y>47646&@&;481*@@$==>6>>6896>4465=y64;&O :6645165669",
"::%>262456448*1;:26=&&>24;@-$O$$=:%>162::::36&862*>, &-126;>-125",
"5ew8581>614479wee>42>>4575qweO.OOo.65859e9557&26>5w9  1558wwe55w",
"89e767>$**%>298ewishkzp47888wO+$@O >66599e668,&2848eo -58999w285",
"4694242$=;$*1658>6wwigi447677O*=$$o;63=3784664>92549= &665675268",
"467>:42::,::,448>62446i422445==%@$O;4;@<7564>568:464>O=662448>>4",
"246,:,>4452,=448=:>:4492::646=--&$O$2@@<432<;347*24:17%2;>446=::",
"116166,&*,&@*>>8$&&&*:7615215,62@OOO&@<137672%*2#*==2eq=O#%;6;:=",
"7899ww8&*$*&=788:&&&*=8eei789wey*&*=&&2788tau+*272%-79wyoX>78997",
">444788*;,22:244851,>4477946467w==,<<4*45748w&64581$679j>o5iissy",
"2446461$*=*;;2654782664445444448$@***<*488447:868e>;869i:#878wes",
"=42266>&$$$=$:2>445>422446>22247$$@@&*@22>665*4wip::96e8O#24665y",
"@:$;:1>$=$OO$*:*:,4=:;*:11=:=>>5@**@+**;;*,:5O>6p9=>78e>O$>66555",
"9yyw89wiiwOXXX  989eiiy5wy8yi8999yys9ww99r885+@:66$2645$18;2;334",
"78e7665895O#&@O.255759745858y45778ew0shzcd4483$&,,$,62<$87@@@@*<",
"6672>49755%=$@$o:>69586565257:46448264668g4455>*&$=;><*383**<**;",
"465>:46663==&@@X::66555222566>:4646<42164r44:265O.$=;:*54<<23<<,",
":>6:=-;2>4*%&&@O#;=:233:>=>26$:=,25:*>->29,==>22@o O=>=::;2>6;:&",
"5785wwq5889we5556ew8585ew8#%;**#768:$$@&=6www#=*OOO9222>>55787yw",
"677889w47798i47799w7689898=5642$2774:==;:789i&2472*7ushkzj48788y",
"1644687444658246659346766689944=>465772244669=46967249wrff44437w",
">626444424667>664662642463ywwy9>>664456666466*599we:44444i244447",
"%2,26421:>>46-4:26612:,443>ff86=*3:1621>>:244$:8hj7;:2;248:2,247",
"1762236576115564>156772232$u64:=,553135875117==6e0,$$&&=;7376127",
"9ey985weyy78wwwi789weye788@24>:69ei888wyey7898>167,>=&%*;7wwi789",
"66w6447695448579,447685465>%:26465w5447485647747:=4762:>47575245",
"6472:68766465448,>697655544>224>6473:48746664448::66686644648,45",
"246>>>22464>=245*:>44424>:646;:*445>>>244642=467=:24665>2>445::>",
"::5,--=:13:;-,,7@*$=,>>:$=::6$;@;:3>=--:>4;==::7O*@=:>1;;;:,5$;="
};
