/* XPM */
static char *_04b5bb711e04014cf4498e0addfc2c51CWejtJVR4YK319g[] = {
/* columns rows colors chars-per-pixel */
"64 64 230 2 ",
"   c None",
".  c #010000",
"X  c #040814",
"o  c #37121D",
"O  c #362A28",
"+  c #323030",
"@  c #362425",
"#  c #541C31",
"$  c #582A2C",
"%  c #5A2C35",
"&  c #512E30",
"*  c #642939",
"=  c #653332",
"-  c #6B3535",
";  c #6A373A",
":  c #743C3A",
">  c #7A3F3D",
",  c #673034",
"<  c #544D32",
"1  c #7B423E",
"2  c #6C5332",
"3  c #6A6839",
"4  c #6E733C",
"5  c #716E3D",
"6  c #5D6132",
"7  c #5A354B",
"8  c #792B4A",
"9  c #762A47",
"0  c #663848",
"q  c #783546",
"w  c #673C56",
"e  c #703351",
"r  c #5F3E66",
"t  c #713F61",
"y  c #3E4445",
"u  c #4A4849",
"i  c #5A5250",
"p  c #6A4746",
"a  c #7D4442",
"s  c #79494B",
"d  c #795449",
"f  c #69465B",
"g  c #794456",
"h  c #675756",
"j  c #775856",
"k  c #665348",
"l  c #7C7745",
"z  c #7B6659",
"x  c #776E52",
"c  c #6C4568",
"v  c #764A68",
"b  c #79566A",
"n  c #7A4D73",
"m  c #764C71",
"M  c #7C5673",
"N  c #5D6364",
"B  c #766868",
"V  c #767977",
"C  c #6E716E",
"Z  c #5A5162",
"A  c #875D37",
"S  c #895537",
"D  c #8C6237",
"F  c #966936",
"G  c #9D7136",
"H  c #8B632C",
"J  c #A8783A",
"K  c #812E4B",
"L  c #883648",
"P  c #8B3251",
"I  c #983855",
"U  c #93364D",
"Y  c #A63D5C",
"T  c #814542",
"R  c #854A44",
"E  c #894C45",
"W  c #874949",
"Q  c #86584C",
"!  c #844959",
"~  c #9A4654",
"^  c #885758",
"/  c #95514B",
"(  c #AC415E",
")  c #AA495B",
"_  c #AA5653",
"`  c #857D4A",
"'  c #84784B",
"]  c #9C7142",
"[  c #896857",
"{  c #95675D",
"}  c #867857",
"|  c #95765C",
" . c #906746",
".. c #A77948",
"X. c #AC764E",
"o. c #875768",
"O. c #94566B",
"+. c #825274",
"@. c #89577A",
"#. c #8C5A7C",
"$. c #865877",
"%. c #945C7A",
"&. c #864E67",
"*. c #AE4360",
"=. c #B24262",
"-. c #B7566A",
";. c #896964",
":. c #986766",
">. c #8A7368",
",. c #9E7363",
"<. c #97796A",
"1. c #876376",
"2. c #996577",
"3. c #8A7D7B",
"4. c #957A73",
"5. c #A27465",
"6. c #AC7C6C",
"7. c #A47969",
"8. c #B07F6E",
"9. c #A86479",
"0. c #A77978",
"q. c #AC6E71",
"w. c #C06177",
"e. c #7F8266",
"r. c #B6833C",
"t. c #C28B3E",
"y. c #8B834D",
"u. c #86874A",
"i. c #8D924E",
"p. c #888354",
"a. c #958A57",
"s. c #979855",
"d. c #B98846",
"f. c #AD9154",
"g. c #9DA258",
"h. c #A4A45C",
"j. c #A5AB5C",
"k. c #A9AC5F",
"l. c #898875",
"z. c #988477",
"x. c #918F70",
"c. c #A98369",
"v. c #B1836F",
"b. c #A98778",
"n. c #B28271",
"m. c #B68C7B",
"M. c #AB966F",
"N. c #A9A965",
"B. c #ADB461",
"V. c #B5BA66",
"C. c #ACB275",
"Z. c #9DA170",
"A. c #C38D42",
"S. c #C69346",
"D. c #C5965B",
"F. c #D39C4B",
"G. c #D2A163",
"H. c #BDC36B",
"J. c #C3CA6E",
"K. c #C1C76D",
"L. c #C7CE70",
"P. c #CCD473",
"I. c #CFD875",
"U. c #D1D976",
"Y. c #757F81",
"T. c #875C83",
"R. c #955E80",
"E. c #985F82",
"W. c #896286",
"Q. c #9A6285",
"!. c #996886",
"~. c #9A7486",
"^. c #96758A",
"/. c #A56D8C",
"(. c #B46984",
"). c #B87487",
"_. c #AA7C96",
"`. c #A77B8F",
"'. c #C77E92",
"]. c #7B8689",
"[. c #838887",
"{. c #988887",
"}. c #999489",
"|. c #8B9597",
" X c #979998",
".X c #858F8D",
"XX c #A99689",
"oX c #B99787",
"OX c #AD8297",
"+X c #B3859C",
"@X c #B6899D",
"#X c #A89A98",
"$X c #B59288",
"%X c #A6A39D",
"&X c #BCA293",
"*X c #B4A78C",
"=X c #919EA0",
"-X c #BA87A1",
";X c #BE95A7",
":X c #9AA5A7",
">X c #A2ABAC",
",X c #A5A8A7",
"<X c #B7A9A8",
"1X c #ABB4B5",
"2X c #B5BABA",
"3X c #ABAFAE",
"4X c #C29C8C",
"5X c #C69695",
"6X c #D3869B",
"7X c #C5A38F",
"8X c #C4A492",
"9X c #CAA996",
"0X c #CEAD9A",
"qX c #C8A899",
"wX c #D0AF9C",
"eX c #D1B19D",
"rX c #C28EA9",
"tX c #C693AB",
"yX c #CE99B3",
"uX c #CC97B2",
"iX c #D19BB5",
"pX c #E792AB",
"aX c #C6BAB5",
"sX c #D1B8A9",
"dX c #DAC6B9",
"fX c #B7BEC0",
"gX c #BDC4C6",
"hX c #C2C6C7",
"jX c #D6CDC5",
"kX c #E4D7CC",
/* pixels */
"                                                                                                                                ",
"                                                                                      6 4 i.s.j.s.3 O                           ",
"                                                                              4 u.s.B.H.K.H.B.h.i.G 4 <                         ",
"                                                                            < g.K.P.P.J.V.h.a.y.u.u.` u.3 <                     ",
"                                                                            4 B.P.U.P.H.j.s.y.u.y.l ` y.` l 3 <                 ",
"                                                                            i.B.P.U.P.H.h.y.u.s.i.e.l y.y.y.` u.                ",
"                                                                            l j.P.I.I.V.N.s.g.V.H.B.s.y.y.y.y.i.                ",
"                                                                6 4 4 e.i.4 4 i.B.K.J.J.V.K.H.C.B.B.g.y.` y.i.i.                ",
"                                                6 4 i.h.V.H.J.P.I.I.I.P.P.P.P.L.L.K.V.k.h.B.V.*X Xx.e.x e.p.e.e.                ",
"                                            e.g.B.J.P.P.P.P.I.I.U.U.I.I.I.P.P.H.V.H.P.P.L.V.N.N.C.%X:X=X|.|.e.V                 ",
"                                        s.B.H.P.I.I.I.I.I.I.I.P.P.P.L.H.V.k.a.a.5.h.B.J.P.K.B.s.e.l.%XfX2X:X|.|.                ",
"                                    i.N.H.H.H.P.P.P.P.P.P.J.V.N.Z.a.a.a.7.6.8.8.6.| ` s.h.g.a.y.e.l  XgXgX1X:X=X.X              ",
"                                  s.g.j.N.g.g.s.g.N.N.M.M.M.oX&X7X9X0X8XoXM.| } ' x d l y.y.y.y.u.D x.1X2X2X>X:X].              ",
"                                i.H.V.N.Z.x.>.>.m.7X9X0X9X9X0X0X0X0X0XqX$Xb.4.>.,.{ | [ x ' ` y.u.` p.x }.1X1X|.].              ",
"                                l M.M.}.l.Z y i 4.oX9XwXwXeXeXwX0X0XqX$X{.B Z Z B 1.6.7.|  .l ' y.y.u.l }.>X>X=XY.+             ",
"                                4.&X&X#X%X#XV 7 x b.&X0XwXeXwXeX0X&Xz.C h y @ X O k ;.7.6.5.| ' ` y.y.p.x.:X>X:X].y             ",
"                              z z.9XdXkXdX%XC & z z.&XwXwXwXwX9X&XsXdX2X,Xe.+ . @ h 4.0.v.6.7.| l ' [ z.}.,X,X:X].Z             ",
"                              >.b.qXdXdXaX}.N < z XX7X0XwXwXwXeXsXdXkXjX<X^.< . O B z.b.v.6.| y.p.} | <.XX,X3X:X].N             ",
"                              >.z.8XwX9X&X}.C k 4.&X9X0XwXwXwXwXeXdXkXkXjX Xu . + z 4.v.6.,.| s.a. .[ ,.#X1X1X>X].N             ",
"                              j z.7XwXwX9XqXoXXXb.m.4X0XwXwXwXwXwXwX0X0XqXXX4.{ [ ,.v.v.c.c.a.a.a.| [ j {.2XgX>X|.C             ",
"                              B z.8XwXwXwXwXwX9X4X4XqX0XwXwXwX0X0X0X0XwXwX9X4Xm.8.8.8.8.v.h.s.y.l Q k & |.gXgX>X].V             ",
"                            N ].{.XX7X0XwXwXwXwXwXwX0X0X9X0X0X0X8X8X9XwX9X4Xm.m.8.8.8.6.7.N.h.y.6 < O i :XhXgX1X=X].C           ",
"                            e.l.l.x z.7XwXwXeXwX0X8XoX$X$X$XoX5X7X9X0X9X4X4Xm.n.8.8.8.c.a.N.h.y.5 2 i C 3XhXgX:X=X].].          ",
"                          [.[.N.s.l x z.oX9XwXwXwXwX5X5X5X5XqXwX9X9X7XoXm.n.8.n.8.6.6.h.h.s.i.y.' 3 i e.,XhXgX:X=X=X].          ",
"                          V ].[.l.x 6 i >.oX7X9X9X9X0X9X0X0X9X7X4Xm.m.n.8.n.8.n.v.,.[ x u.i.s.` 5     [.,X2X1X:X=X=X].          ",
"                          i h z.z.[ [ [ ^ j ;.b.m.oXoXoXm.m.n.n.v.v.6.8.8.n.8.8.7.:.d 2 3 u.y.l   k 3.XX,X:X:X:X|.].            ",
"                            h b.oXm.7.{ 2.9.O.p p p d [ { { ,.5.5.,.,.5.7.5.{ [ d s     k     < j >.b.$Xb.z.4.3.C i             ",
"                            k 4.b.oXm.0.).6X'.(.%.O.O.O.O.! ! ! s d { ,.7.5.:.O.9.9.(.).(.9.O.O.%.:.<.v.n.n.7.>.B               ",
"                              k <.*X4X).'.pXpXpX6X'.9.g L ! ~ t a a { { 5.{ { :.:.O.:.9.(.(.(.9.9.:.q.6.v.7.>.                  ",
"                                [ XXXX0.'.pXpX6X'.q.:.^ O.) q.w.) ~ L ) -.) W _ 7.6.q.0.).(.(.(.9.:.7.6.<.z                     ",
"                                  >.<.b.$X6X'.'.).0.4.<.{ ) -.-.) L L T W L W { 5.,.9.(.).(.(.(.q.2.;.[ z                       ",
"                                    4.oX$Xb.).0.6.5.m.4X0.{ W L R Q 5.5.6.6.7.5.:.q.9.9.9.(.9.9.9.;.z                           ",
"                                      4.b.m.v.X.r.r.....] ] G ] ] ........X.d.d.d.X.:.o.^ ^ ;.,.:.j                             ",
"                                        >.c.7.] G J r.A.S.S.A.A.S.S.S.d.J A.F.F.A... .,.7.v.7.[                                 ",
"                                          2 L W _ J t.F.S.S.t.A.A.d.r.J D D F D Q >.3.4.<.| [                                   ",
"                                            L Y ) ) _ X.A...J F S 1 > q K q K 8 q g B l.{.B                                     ",
"                                            U Y =.=.=.=.=.=.=.) Y Y I P K 8 8 8 8 9 e f b                                       ",
"                                          # K *.=.=.=.=.=.=.=.=.=.Y P K 8 8 8 8 8 8 9 9 &                                       ",
"                                          o L =.=.=.=.=.=.=.=.Y I P K 8 8 8 8 8 9 8 9 % o                                       ",
"                                          o L =.=.=.=.=.=.=.=.Y I P 8 8 8 8 9 8 9 9 9 #                                         ",
"                                            P Y =.=.=.=.=.=.=.=.=.Y I P 8 8 9 8 9 9 * #                                         ",
"                                            K Y Y =.=.=.=.=.=.=.=.( Y P K 9 8 8 9 * #                                           ",
"                                            : U Y =.=.=.=.Y =.Y =.Y I P K 9 9 8 q - * $                                         ",
"                                            - K ~ =.=.) ) ~ ~ ~ I I P 8 9 9 q  .J r.r.G H                                       ",
"                                            S  ./ _ X.X.A.A.S.r...F S 9 q 9 1 ] r.J G H 2                                       ",
"                                            d.F.D.D.f.D.A.t.A.S.S.t.G G J r...J G F F 2 2                                       ",
"                                    ^.`.2.;.X.d.S.D.D.D.G.G.d.r.t.A.J G F F F H 2 2 Q j j                                       ",
"                            1.~.-XtXyXiXyXyXrX+X`.<.X...d.d.J G G F S A H D H D  .O.2./.2.b                                     ",
"                    1.^.^._.+X-X+X+XOXOX@XtXtXyXyXuX-XOX2.;.[ D D Q 2 s d d Q ! o.%.E.E.Q.1.1.                                  ",
"                `.@XtX-XOX{.{.^.3.^.`.OX+X+XOXOX-XtXyXiXiXuX@X`.;.^ %.%.E.Q.Q.E.Q.E.E./.!./.!.                                  ",
"              @X;X@X#X<XaX,X{.^.OX<X<X#X^.2.^.`.!.W._.-XuXiXiXuXtX+XQ.#.E.Q.E./.Q.Q.Q.E./././.b                                 ",
"              -XuX;X#X<X;X#X.Xe. XaXaX<X#X3.1.M #.T.#.T./._.tXuXiXrX_./.Q.E.E.E.Q.Q.Q.Q.Q././.M                                 ",
"              OXrX~.j s j B B B [.<X&X{.B j k h j M @.@.+.+.T./.-X-X/.E.Q.Q.E./.Q.Q.E.Q.!././.                                  ",
"            1./.`.2.W E W a : % p j j W E E q : % 7 &.#.R.T.@.R.E.Q.Q.E.Q.E.Q.Q.Q.Q.Q.E.Q.~.!.b                                 ",
"            1.~.`.q.W E E 1 ; - - a E E E E 1 : , % f +.n n n +.T.R.E.E.E.Q.E.E.E.%.E.E.#.#.$.+.+.b v v f w                     ",
"            1.^._.2.s S R a : - - 1 a E E E E 1 - , 0 v @.R.R.T.n n n T.R.E.E.%.+.+.+.#.2.W.2.E.Q.%.E.E.Q.!.Q.1.$.$.$.1.M       ",
"            M W.W.n s 1 R T : = % % ; T E E R a : * e v &.@.E.#.n m +.@.@.@.@.#.E.#.#.+.$.$.+.+.M @.+.m n +.+.n n m m 1._.;X_.~.",
"        f Z M W.^.W.o.^ E T : = % 7 0 a W E E R 1 9 e t t v @.#.@.+.+.+.n m c c c c c r r c c c c m n m m n n n v c v 1.1.      ",
"  b W.Q.W.T.T.T.T.T.b ! R T : - 7 e w ; : R E R 1 = % @   & w v +.@.@.@.+.n m m n +.+.m c v v c c w 7 7                         ",
"      w f f f c c w 0 0 > : : , & # @ o = 1 R E a : %                                                                           ",
"                      = - : : = &         = 1 R T 1 =                                                                           ",
"                      = - - - $             ; R a 1 = $                                                                         ",
"                      $ $ $ $                 - - - - $                                                                         ",
"                                                  $ $                                                                           "
};
