/* XPM */
static char *ca2d43053ddd4cb3e44205a10cb366c6IihASzfyM6oYfgXX[] = {
/* columns rows colors chars-per-pixel */
"64 64 245 2 ",
"   c #282F3E",
".  c #181C2E",
"X  c #453E3B",
"o  c #7A3228",
"O  c #764D32",
"+  c #685D2D",
"@  c #2A304F",
"#  c #37356D",
"$  c #701C45",
"%  c #7B2B54",
"&  c #783875",
"*  c #75336B",
"=  c #4B3E7A",
"-  c #3C4A6A",
";  c #444A55",
":  c #6E454C",
">  c #77417F",
",  c #6D6666",
"<  c #8D2F3C",
"1  c #8C561B",
"2  c #966A1D",
"3  c #AC751E",
"4  c #8B5A2E",
"5  c #9B662A",
"6  c #8B7536",
"7  c #B37A27",
"8  c #A7722D",
"9  c #CB662A",
"0  c #D9711B",
"q  c #88165C",
"w  c #832558",
"e  c #892F4D",
"r  c #AB2E5B",
"t  c #96156D",
"y  c #B11E6B",
"u  c #8F2661",
"i  c #BE2F7E",
"p  c #B52A7A",
"a  c #B22A71",
"s  c #B01F57",
"d  c #C8216F",
"f  c #924E53",
"g  c #92714E",
"h  c #A57952",
"j  c #905371",
"k  c #A6526F",
"l  c #926F78",
"z  c #B67676",
"x  c #AD6E6B",
"c  c #B05853",
"v  c #D2676D",
"b  c #7F8573",
"n  c #8E921E",
"m  c #89881D",
"M  c #8A8A26",
"N  c #979C25",
"B  c #97973A",
"V  c #90882F",
"C  c #BC8529",
"Z  c #B48936",
"A  c #9DA625",
"S  c #9EA430",
"D  c #A2AD27",
"F  c #A7B32D",
"G  c #A2AA36",
"H  c #ADB936",
"J  c #ACB735",
"K  c #B1BD3A",
"L  c #AA8A1F",
"P  c #C48B28",
"I  c #CC9528",
"U  c #D39B29",
"Y  c #CF9837",
"T  c #DBA730",
"R  c #E5AB29",
"E  c #EBB329",
"W  c #F3BA2B",
"Q  c #EEB833",
"!  c #B4C13E",
"~  c #FBC22C",
"^  c #FAC435",
"/  c #848745",
"(  c #978853",
")  c #918A53",
"_  c #B39150",
"`  c #B5B957",
"'  c #ABAF4C",
"]  c #918875",
"[  c #A88769",
"{  c #B68978",
"}  c #B0916F",
"|  c #BDBB68",
" . c #B3AF72",
".. c #9FA071",
"X. c #C8984A",
"o. c #D0AF50",
"O. c #E7B753",
"+. c #C6B979",
"@. c #CDAA72",
"#. c #E8BF65",
"$. c #B6C443",
"%. c #BAC55B",
"&. c #BDC463",
"*. c #C1CF59",
"=. c #C3D257",
"-. c #F5C654",
";. c #C4C968",
":. c #CBD868",
">. c #C8C578",
",. c #CDD672",
"<. c #D3DB76",
"1. c #D8E778",
"2. c #E7C375",
"3. c #363D86",
"4. c #463F81",
"5. c #464D9A",
"6. c #42509E",
"7. c #4D579A",
"8. c #524D93",
"9. c #664689",
"0. c #764682",
"q. c #73578F",
"w. c #74639C",
"e. c #525BA3",
"r. c #5964A6",
"t. c #727BB2",
"y. c #6B72AD",
"u. c #D93787",
"i. c #F73FA2",
"p. c #8B5E8C",
"a. c #9D6A94",
"s. c #95688B",
"d. c #A96D8A",
"f. c #A26E9C",
"g. c #B67493",
"h. c #9175AC",
"j. c #AD78AE",
"k. c #A974A8",
"l. c #B27DAE",
"z. c #D54A88",
"x. c #C87890",
"c. c #F078B2",
"v. c #F060A3",
"b. c #7D84B6",
"n. c #888C87",
"m. c #8B9388",
"M. c #8C9A94",
"N. c #969B98",
"B. c #939188",
"V. c #A88788",
"C. c #A99698",
"Z. c #B79896",
"A. c #B6928E",
"S. c #B7A389",
"D. c #B5A999",
"F. c #B5AD96",
"G. c #9089BB",
"H. c #B387BC",
"J. c #99ACAA",
"K. c #9EB2B0",
"L. c #AAA7A3",
"P. c #B8A9A7",
"I. c #B9B3AA",
"U. c #BAB9B3",
"Y. c #AAB6B2",
"T. c #93A29D",
"R. c #C69989",
"E. c #CF8895",
"W. c #CCA694",
"Q. c #D3AA97",
"!. c #D2B39B",
"~. c #C7B38C",
"^. c #CB98B8",
"/. c #C38DAC",
"(. c #E78DB5",
"). c #C3B8AB",
"_. c #D9BAA5",
"`. c #C5BCB4",
"'. c #C7BCB5",
"]. c #C4A7A8",
"[. c #E4B8AC",
"{. c #B9C2B9",
"}. c #CBC78D",
"|. c #E5C792",
" X c #DEEB81",
".X c #E0EF82",
"XX c #E9FD8A",
"oX c #E3F584",
"OX c #DEC2AC",
"+X c #CCC4BC",
"@X c #C6C3BA",
"#X c #CEC7B3",
"$X c #E9CAB5",
"%X c #F1D4BE",
"&X c #EBD2B1",
"*X c #FCE2AA",
"=X c #969CC2",
"-X c #8C93C0",
";X c #AC8DC5",
":X c #9DA3C6",
">X c #B6BAD4",
",X c #A9AECC",
"<X c #C899C9",
"1X c #D39DC7",
"2X c #CA9FD1",
"3X c #D9A4CB",
"4X c #D7A4D3",
"5X c #CDA3D5",
"6X c #E4AEDB",
"7X c #E8B2DF",
"8X c #F9A2CC",
"9X c #E9B4E2",
"0X c #E5B2E1",
"qX c #F99EC6",
"wX c #B2C4C3",
"eX c #CCC6C2",
"rX c #CACAC4",
"tX c #D2CAC3",
"yX c #D4CDC9",
"uX c #CAD2CB",
"iX c #D8D2CC",
"pX c #DBD6D3",
"aX c #DDD9D5",
"sX c #DDDDDD",
"dX c #D5D7D4",
"fX c #C9D7D4",
"gX c #F6DAC5",
"hX c #F6DBC7",
"jX c #E2DEDC",
"kX c #E8DDD3",
"lX c #ECD7C4",
"zX c #D2E0DD",
"xX c #FEE3CE",
"cX c #F5E0CE",
"vX c #E3E1DE",
"bX c #EDE3DD",
"nX c #F7E6D7",
"mX c #DAE9E7",
"MX c #E4E4E4",
"NX c #EBEBEB",
"BX c #E8E8E7",
"VX c #E3F3F2",
"CX c #F4F4F4",
"ZX c #FDF7F1",
"AX c #EBEEEE",
/* pixels */
"CXCXCXCXCXCXCXCXCXCXCXCXCXCXCXCXCXCXZXCXCXZXCXCXCXCXCXZXCXCXCXCXCXCXCXCXCXCXCXCXCXCXCXCXZXCXCXCXCXCXCXCXCXCXZXCXCXZXCXCXCXCXCXCX",
"CXCXCXZXCXCXZXCXCXZXCXCXZXCXCXZXCXCXCXCXCXCXCXCXZXCXCXCXCXZXCXZXZXCXCXZXZXCXCXCXCXCXCXZXCXCXCXCXCXZXZXCXCXCXCXCXCXCXCXCXCXZXZXCX",
"CXCXCXCXCXCXCXCXCXCXCXCXCXCXCXCXCXZXCXCXCXCXCXCXCXCXCXCXCXCXCXVXCXCXCXCXCXCXCXCXCXCXCXCXZXCXCXCXCXCXCXCXCXCXCXCXCXCXCXCXCXCXCXCX",
"CXCXMXCXMXNXCXsXCXMXCXNXNXCXBXCXvXAXNXBXCXsXCXBXNXpX#X#X .>.| }.#X@XAXsXCXNXAXCXMXCXvXAXAXNXCXsXCXmXCXCXMXCXsXCXNXAXCXMXCXMXCXCX",
"CXMXCXMXNXBXMXCXsXCXMXNXAXMXCXsXCXMXNXNXtXyXjXAX+X|.T <.oXXXXXXXXX.X:.#XsXkXpXMXAXvXCXMXNXNXMXCXjXCXMXNXNXMXCXvXAXNXNXAXBXCXjXCX",
"CXCXMXAXBXNXNXMXAXMXAXBXNXAXMXCXMXNXNXMXtX'.AX~.&.Z C +.2.o.1.XX.X>.<.1.V I g MXMXCXMXAXNXBXNXMXCXMXNXNXBXAXMXAXMXNXNXMXCXmXAXCX",
"CXBXAXBXNXNXBXNXBXAXBXBXNXBXNXMXNXBXNXNX+X+XF.oX X:.4 #._ Q C o.T |.8 ' C h g iXNXMXAXBXNXNXBXNXMXNXBXNXNXBXNXMXAXNXBXNXBXAXBXCX",
"CXNXBXNXBXNXNXBXNXBXNXNXBXNXNXNXBXMXtXBXtX+X,.1.XXXX,.X.8 7 3 -.v 8Xv.I 7 5 4 MXjXyXNXNXBXBXNXNXNXBXNXNXNXNXNXNXNXNXNXBXNXBXNXCX",
"CXNXMXNXBXBXBXMXNXBXNXNXNXNXMXAXBXjXiX+X).tX%.<.XXXXoX%.,.5 m ~ z.v.z.< O 2 m #XI.tXBXNXNXBXNXBXNXNXBXNXBXBXBXNXNXNXNXNXNXMXNXCX",
"CXMXCXMXNXBXBXCXMXCXMXNXNXMXAXMXAXvXtXaXF.C.B XXXXXX1.' 1.:.:.E v i.a 1 2 V N ) +XtXAXMXNXNXMXAXMXAXBXNXNXMXCXMXNXMXNXNXMXCXMXCX",
"CXAXMXAXBXNXNXMXAXvXAXNXNXNXMXCXMXAX'.).F.B.;..X1.1.G ' M G D I ~ d 4 g { W.M B L.vXMXAXNXBXNXMXCXMXNXNXBXCXsXCXMXNXNXMXCXMXNXCX",
"CXsXCXMXAXNXMXCXjXCXMXNXNXvXCXsXCXvX].$X] ..;.( [ ) / b 6 6 g h R I x gXhXR./ M ] U.CXMXNXNXMXCXsXCXMXNXNXsXCXsXCXMXNXAXjXCXjXCX",
"CXCXsXCXMXNXAXsXCXsXCXBXNXAXsXCXjXAX'.[.gX| %.!.cXM.@ ; U.lXgXhX&XR.%XcX!.} g n ] U.sXCXMXBXAXjXCXMXAXNXBXCXsXCXvXNXNXMXCXsXAXCX",
"CXsXCXMXNXNXBXCXsXCXvXNXNXMXCXvXCXMXiX!.W.>.` #X@Xm.= @   iXxXxXxXxXxXkXbX!.h M n.U.ZXMXNXNXMXCXsXAXMXNXNXsXCXsXAXNXNXNXvXCXMXCX",
"CXCXsXAXMXNXNXMXCXMXNXNXNXNXMXAXMXAXBX_.S.` ' OXZX] @   L.n.xXxXxXxXiX, ; D.[ / , +XBXAXBXBXNXMXCXMXNXNXBXCXjXCXMXNXNXMXAXMXNXCX",
"CXBXNXBXNXNXNXNXMXNXMXNXNXNXNXNXNXBXBXtXW.+.J OXlXb.. . AXdXhXxXxX%X; - N.L.[ } _.W.AXBXNXNXBXNXMXNXMXNXNXBXAXBXNXNXNXNXNXNXNXCX",
"CXNXNXNXMXNXNXMXNXNXNXNXNXNXNXNXNXNXNXiX$X+.' !.xXW.; C.nXnXxXxXxXbX    I.nX) O { sXBXNXNXBXNXBXNXNXNXNXBXAXBXNXBXNXNXNXNXBXBXZX",
"CXNXMXNXNXNXNXNXNXNXNXMXMXNXMXNXMXNXNX].,.| %.W.xXxXgX%XxXxXxXxXxXhX  X +X~.+ ] ] aXBXNXBXBXNXBXNXNXNXNXBXNXBXNXBXNXBXBXAXBXNXCX",
"CXMXNXMXNXNXMXAXsXAXMXNXNXMXCXvXNXNXNX .XX;.:.[ xXxXxXxXxXxXxX_.%XxXgXOXW.( / b m.U.CXpX+X#XF.+XmXNXMXNXBXvXAXMXAXBXNXAXMXAXMXCX",
"CXCXvXCXNXNXNXMXCXMXCXMXNXNXMXCXMXNXpX}.<.,.M m  .xXxXxXxX[.$XhXgXxXxX[.h N b T.Y.S.+.<.1.%. .&.>.}.}.!.#X#X+XCXMXNXNXMXCXMXAXCX",
"AXsXCXsXNXNXMXCXsXCXMXNXNXvXCXsXCXMXF.XX<.;.m D N ( OXxXxXhX[.[.xXhXQ.g n M b.{.}.XXXXXXXXXXXXXXXXXXXXXX1._ iXsXCXBXNXAXjXCXjXCX",
"CXCXsXCXMXNXNXvXCXsXNXNXMXCXsXCXsXNX>.XXXX` n D D n 6 { [.$X_.!.} ( n B A M.T.` oXXXXXXXXXXXXXXXXXXXXXXX X&.yXCXvXNXNXMXCXsXCXCX",
"CXvXCXMXNXNXMXCXsXCXMXNXNXMXCXsXCXpX<.XXXX;.n M z g.k $X[.R.x k f 6 A | M b.J...%.%.:.XXoXXXXXXXXXXXXXXXoXF.CXsXAXNXBXAXsXCXjXCX",
"CXCXvXCXMXNXNXMXCXMXNXNXMXCXMXCXMX+X.XXXXX*.m x.k x (.z W.c.y x.z.k x S G b J.K./ $.1.1.1.1.1.:.:.*.:.XX>.aXmXCXMXNXNXMXCXMXAXCX",
"CXMXNXMXNXNXMXNXMXNXNXNXNXNXNXMXNX+X.XXXXX:.V (.g.{ u.s z.c.d s d k x.g 6 ) wXJ.M.A F F H H ! ! ! ! oXoX[ BXNXBXNXNXMXNXMXNXNXCX",
"CXNXNXNXNXNXNXNXNXNXNXMXNXNXMXNXBXtX;.oX1.@.(.(.(.R.v R.z d d x { R.x.x.k g mXmXT.B F J J ! H H ! =.1.%.eXNXBXNXNXNXNXNXNXNXNXCX",
"CXNXMXNXNXNXNXNXNXNXNXNXNXNXMXNXMXMX| ` z qX8X(.x.z @.lXxXE.{ R.W.{ Y x { ] uXVXwXb.S H H H ! ! ! $.:.) BXNXBXNXMXNXNXNXNXNXNXCX",
"CXMXCXMXNXMXNXNXMXAXMXNXNXMXNXMXNXBXF._ 1.+.E.E.z O.U Y X.Y P P P X.U 7 W.fXuXVXzXT.S H H ! ! ! $.$.G 3XNXMXAXMXAXNXMXAXMXAXMXCX",
"CXCXMXAXNXNXNXMXCXvXNXNXMXAXMXCXMXNXaXS.>.XX!.gX$Xo.E I O.W R R E C O.3 [ VXVXVXVXJ.S H ! ! ! ! $.$...mXMXAXMXCXMXNXNXMXCXvXNXCX",
"AXsXCXsXNXMXMXCXsXCXMXNXNXMXCXsXCXMXNXtX`.` %XxXgXg 5 5 O.E R R I 7 o O A ) {.zXmX] J H H ! ! ! $.B yXBXNXMXCXsXCXBXBXAXjXCXjXCX",
"CXCXsXCXMXNXNXsXCXsXCXMXNXCXsXCXMXNXNXMXAXZ.%XxX[.x S.l < 5 U P 5 e t $ A A D A S F H H ! ! ! ! B ).AXBXMXCXsXCXMXNXNXMXCXsXCXCX",
"CXvXCXMXCXNXMXCXsXCXMXNXNXMXCXsXCXMXNXNXsX@XMX@XR.x {.a i p u < q y a q N D F F F H ! H ! ! ! B U.AXBXNXNXMXCXsXCXMXNXAXMXCXjXCX",
"CXCXMXCXMXNXNXMXCXMXNXBXBXNXMXCXMXAXBXBX#XmXVX{., m.I.i i i i i i i p q N D F J H J ! ' ! H ) @XCXMXNXNXMXAXMXCXjXNXNXMXCXMXNXCX",
"CXMXNXMXNXNXNXNXMXNXBXNXNXBXNXMXNXBXNXNXuXVXmXT., M.k i i i i i i p t w D D D J J K K H B F.MXAXMXNXBXNXNXNXNXNXNXNXNXNXMXNXMXCX",
"CXNXNXNXNXNXNXMXNXBXNXNXNXNXBXNXBXNXAX#XmXVX{.b.#Xf i i i i i i i t t : D D F J J S ..@XsXBXNXBXNXBXNXBXNXNXNXNXNXNXNXNXNXNXNXCX",
"CXNXMXNXMXNXNXNXNXBXNXBXBXNXBXNXBXNX#XfXVXwXJ.P.BXe i i i i i i p t t f D D F G V #XvXAXNXBXNXBXNXBXNXNXNXNXMXNXMXNXNXMXNXNXAXCX",
"CXMXAXMXNXNXNXNXMXAXBXNXNXMXAXMXNXjX@XVXfXJ.B.MXvXf d u.i i i i a t t C.).F.I.P.I.3XuXBXNXNXBXAXMXNXBXNXNXMXAXMXNXNXNXNXMXNXMXCX",
"CXCXvXAXMXNXNXMXCXjXAXNXNXAXMXCXMXU.VXzXK.m.aXsX~.~.h a d i i p f e q V.pXMXBXAXMXCXMXAXBXMXCXvXCXMXNXNXBXAXMXAXMXNXNXMXCXvXCXCX",
"CXsXCXMXAXNXMXCXsXCXMXNXNXMXCXsXtXmXmXK.m.vXsXyX-.^ _ q p p x |.O.U C 5 [ AXBXMXCXsXCXvXNXNXMXCXsXCXBXNXAXMXCXsXCXMXMXCXsXCXsXCX",
"CXCXsXCXMXNXAXvXCXsXCXMXBXAXsXkXzXVXY.N.vXsXCX!.~ ~ 8 ~.S.g &X&X*XW 7 5 1 pXBXAXvXCXsXCXMXNXAXjXCXsXAXNXMXCXsXCXvXNXNXMXCXsXCXCX",
"CXsXCXvXNXNXMXCXsXCXmXAXNXMXBXuXVXY.D.BXmXCXjX@.W R h ~ Q 5 -.|.*XW P 2 5 `.NXMXCXvXCXMXNXNXMXCXsXCXMXNXNXMXCXsXAXNXNXNXvXCXvXCX",
"CXAXMXAXNXNXNXvXCX@X+XiXrX+X@XVXY.U.BXBXNXMXAX#X_ h X.~ U 1 W U R U 5 5 2 I.BXAXvXCXMXNXMXNXAXMXCXMXNXNXNXAXvXCXMXNXNXMXAXMXCXCX",
"CXNXNXMXNXBXNXNXBXsXY.{.uXmXmXVXm.MXBXNXBXNXBXNXZ.4X_ E I o g C 7 7 2 1 f pXNXBXNXMXNXBXNXMXNXNXMXNXNXMXNXMXNXNXNXNXNXNXMXNXMXCX",
"CXNXNXNXNXNXNXBXAX+XL.] N.uXU.fXL.BXBXNXNXNXNXjX^.9X^.d.j e 4.* f o # % j.C.BXBXNXNXBXNXNXNXNXNXNXNXNXNXNXNXNXNXNXNXNXMXNXBXNXCX",
"CXNXBXNXBXNXNXBXNXMX3XuXsXNXBXyXP.NXNXNXNXNXNXtX4X9X9X7X2Xk 8.e.7.7.r.* f.k.`.AXBXNXNXNXNXNXNXMXNXNXNXNXNXNXBXNXBXNXNXBXAXMXNXCX",
"CXsXCXMXNXBXBXNXMXAXmXAXNXBXAXjXdXMXNXNXMXAXMX].9X9X9X9X9Xg.9.:XG.,X>X0.s.j.a.yXNXMXAXMXNXNXNXAXMXNXMXNXNXMXNXMXAXBXNXNXBXCXMXCX",
"CXCXMXCXBXNXNXMXAXMXAXNXNXAXMXAXvXNXBXMXAXjXAXZ.9X9X9X9X9X/.0.>XwX>X>Xb.j k.j.a.pXCXmXNXMXNXAXjXCXMXNXNXNXAXvXAXMXNXNXMXCXMXCXCX",
"CXsXCXsXNXNXMXCXsXCXMXNXNXMXCXsXCXMXNXCXvXCXjXA.9X9X9X9X9X1X& =X>XG.>Xy.% f.f.j.V.dXCXMXNXNXMXCXsXCXMXNXNXMXCXsXCXBXBXAXsXCXsXAX",
"CXCXsXCXMXNXNXvXCXsXCXMXMXCXsXCXsXAXNXBXCXaXbX/.9X9X9X9X9X4Xw e.-X& 8.y.& a.s.j.k.C.sXCXMXNXAXvXCXsXNXNXMXCXsXCXMXNXNXMXCXsXCXCX",
"CXsXCXsXNXNXMXCXsXCXMXNXNXMXCXsXCXMXNXNXmXCXeX^.9X9X9X9X9X0Xe 6.6.p.0.6.9.j f.f.j.k.P.sXNXNXMXCXsXCXMXNXNXMXCXsXAXNXMXCXvXCXsXCX",
"CXCXMXNXMXNXNXMXCXMXAXNXNXAXMXCXMXAXBXBXNXMX'.3X9X9X9X9X9X9Xk 8.5.c 9 p.6.% k.j j.j.f.U.NXNXNXjXCXMXNXNXNXNXMXCXMXNXNXMXCXMXAXCX",
"CXBXNXBXNXNXNXNXMXNXMXNXNXMXNXMXNXBXNXNXBXNXD.7X9X9X9X9X9X0Xx 9.0.9 0.0 u w s.a.f.j.p.q.).NXNXNXMXNXNXNXNXMXNXMXNXNXNXNXMXNXNXCX",
"CXBXBXNXBXNXNXMXNXMXNXNXNXNXMXNXBXBXBXNXNXBXZ.9X9X9X9X9X9X9X/.w r k j 9.w.q.u l.p.k.# 4.q.'.NXNXNXMXNXNXNXNXMXNXNXNXNXNXNXNXNXCX",
"CXNXBXNXBXNXNXNXNXNXNXNXNXNXNXNXBXAXNXBXNXNXg.9X9X9X9X9X9X9X1Xw y.=X:X>X,X,X* 0.p.9.4.h.f.f.'.MXNXNXNXNXMXNXMXNXMXMXNXNXNXMXNXCX",
"CXMXAXMXNXNXBXAXMXCXMXNXNXNXNXMXAXBXAXAXBXvX^.9X9X0X0X9X4X9X9Xe G.>X,X:X,X=Xq.$ p.@ 9.k.j.j.a.MXMXNXMXNXNXMXCXMXNXNXNXNXMXNXMXCX",
"CXCXsXCXMXNXAXMXCXvXAXNXMXNXvXCXvXNXBXBXVX3Xh.9X2X;X9X2X8.9X4Xj 9.t.=X:Xt.b.t.% # = p.j.j.k.P.jXCXvXNXNXNXAXvXCXMXNXNXMXCXsXCXCX",
"CXsXCXsXNXNXMXCXsXCXMXNXNXMXCXsXCXMXNXNXvX`.h.h.6.;XG.5.h.H.6.= & G.e.t.t.t.5.e p.k.> j.j.s.jXCXsXCXMXNXNXvXCXsXCXMXNXCXsXCXsXCX",
"CXCXsXCXMXNXNXsXCXsXCXMXMXCXsXCXvXAXNXMXAXC.5.G.r.6.h.e.3.r.;X5.$ & 8.e.t.t.& j 6Xl.f.j l aXCXjXCXvXNXNXMXCXsXCXMXNXNXMXCXsXCXCX",
"CXsXCXMXNXNXBXCXsXCXMXNXNXMXCXsXCXMXNXAXMXC.5X9X;X4X9X<Xw.6X9X2X<X^.f w 9.8.w j.6X1Xj.j +XNXjXNXsXAXMXNXNXMXCXsXNXNXMXNXsXCXsXCX",
"CXCXMXNXNXNXNXMXCXsXNXNXNXNXsXCXMXNXNXMXNX^.9X0X9X9X9X5Xl.0X7X7XH.9X9X1Xd.< s.j.4X6Xf.l I.jXNXjXNXMXNXMXNXNXMXNXMXNXNXMXAXMXNXCX",
"CXMXNXBXNXNXNXNXBXAXMXNXNXMXNXMXNXNXNXNXiX3X9X4X9X9X9X4XH.6X7X7XH.1X9X9X6X1X/.s.d.Z.iXvXBXBXBXNXMXNXNXNXNXMXNXBXNXBXNXNXMXNXNXCX",
"CXNXNXNXNXNXNXBXNXMXNXNXNXNXNXNXNXNXMXNXvX].].k.^.1X1X^.k.4X6X3Xl.f.Z.g.V.R.'.jXNXNXBXNXNXNXNXNXNXNXNXNXNXNXBXNXBXNXNXNXNXNXNXCX",
"CXCXNXCXCXNXCXNXCXNXCXCXCXCXNXCXAXCXCXAXCXBXZXAXNXMXjXiXyX3X'.tXtXkXNXNXCXAXNXCXNXCXNXCXNXNXCXNXCXNXCXNXCXCXNXCXNXCXCXNXCXNXCXCX",
"CXCXCXCXCXCXCXCXCXCXCXCXCXCXCXCXCXCXCXCXZXCXCXCXCXZXCXCXCXCXZXCXCXCXCXCXCXZXCXCXCXCXCXCXCXCXCXCXCXCXCXCXCXCXCXCXCXCXCXCXCXCXCXCX"
};
